<svg width="397" height="654" viewBox="0 0 397 654" fill="none" xmlns="http://www.w3.org/2000/svg">
<g id="1-temp">
<rect id="汤" x="295.5" y="24.5" width="26" height="29" stroke="black"/>
<rect id="外丙" x="295.5" y="82.5" width="26" height="45" stroke="black"/>
<rect id="太丁" x="351.5" y="81.5" width="26" height="45" stroke="black"/>
<rect id="中壬" x="242.5" y="81.5" width="23" height="45" stroke="black"/>
<rect id="太甲" x="297.5" y="153.5" width="24" height="44" stroke="black"/>
<rect id="太庚" x="244.5" y="222.5" width="24" height="44" stroke="black"/>
<rect id="沃丁" x="352.5" y="220.5" width="24" height="44" stroke="black"/>
<rect id="雍巳" x="297.5" y="289.5" width="24" height="42" stroke="black"/>
<rect id="小甲" x="353.5" y="294.5" width="24" height="39" stroke="black"/>
<rect id="太戊" x="243.5" y="297.5" width="24" height="39" stroke="black"/>
<rect id="河面" x="244.5" y="367.5" width="24" height="60" stroke="black"/>
<rect id="外壬" x="300.5" y="364.5" width="24" height="43" stroke="black"/>
<rect id="仲丁" x="353.5" y="367.5" width="26" height="45" stroke="black"/>
<rect id="祖乙" x="299.5" y="462.5" width="28" height="37" stroke="black"/>
<rect id="祖辛" x="298.5" y="521.5" width="29" height="39" stroke="black"/>
<rect id="祖丁" x="256.5" y="585.5" width="25" height="39" stroke="black"/>
<rect id="沃甲" x="357.5" y="583.5" width="22" height="41" stroke="black"/>
<rect id="武乙" x="78.5" y="454.5" width="25" height="48" stroke="black"/>
<rect id="禀辛" x="141.5" y="376.5" width="28" height="62" stroke="black"/>
<rect id="庚丁" x="12.5" y="369.5" width="28" height="52" stroke="black"/>
<rect id="太丁2" x="78.5" y="518.5" width="25" height="34" stroke="black"/>
<rect id="帝乙" x="77.5" y="562.5" width="29" height="41" stroke="black"/>
<rect id="纣" x="78.5" y="622.5" width="28" height="31" stroke="black"/>
<rect id="祖甲" x="8.5" y="281.5" width="29" height="50" stroke="black"/>
<rect id="祖庚" x="141.5" y="276.5" width="29" height="50" stroke="black"/>
<rect id="武丁" x="74.5" y="199.5" width="29" height="50" stroke="black"/>
<rect id="小乙" x="11.5" y="124.5" width="26" height="41" stroke="black"/>
<rect id="小辛" x="54.5" y="124.5" width="23" height="41" stroke="black"/>
<rect id="磐庚" x="96.5" y="120.5" width="29" height="45" stroke="black"/>
<rect id="汤甲" x="146.5" y="120.5" width="23" height="48" stroke="black"/>
<rect id="南庚" x="74.5" y="46.5" width="29" height="48" stroke="black"/>
<circle id="90" cx="363.5" cy="63.5" r="1.5" fill="#FF0004"/>
<circle id="89" cx="364.5" cy="77.5" r="1.5" fill="#FF0004"/>
<circle id="88" cx="364.5" cy="127.5" r="1.5" fill="#FF0004"/>
<circle id="87" cx="364.5" cy="138.5" r="1.5" fill="#FF0004"/>
<circle id="86" cx="309.5" cy="138.5" r="1.5" fill="#FF0004"/>
<circle id="85" cx="309.5" cy="150.5" r="1.5" fill="#FF0004"/>
<circle id="84" cx="309.5" cy="138.5" r="1.5" fill="#FF0004"/>
<circle id="83" cx="310.5" cy="210.5" r="1.5" fill="#FF0004"/>
<circle id="82" cx="365.5" cy="209.5" r="1.5" fill="#FF0004"/>
<circle id="81" cx="365.5" cy="218.5" r="1.5" fill="#FF0004"/>
<circle id="80" cx="254.5" cy="266.5" r="1.5" fill="#FF0004"/>
<circle id="79" cx="254.5" cy="275.5" r="1.5" fill="#FF0004"/>
<circle id="78" cx="254.5" cy="266.5" r="1.5" fill="#FF0004"/>
<circle id="77" cx="310.5" cy="274.5" r="1.5" fill="#FF0004"/>
<circle id="76" cx="310.5" cy="286.5" r="1.5" fill="#FF0004"/>
<circle id="75" cx="256.5" cy="288.5" r="1.5" fill="#FF0004"/>
<circle id="74" cx="256.5" cy="295.5" r="1.5" fill="#FF0004"/>
<circle id="73" cx="256.5" cy="348.5" r="1.5" fill="#FF0004"/>
<circle id="72" cx="310.5" cy="347.5" r="1.5" fill="#FF0004"/>
<circle id="71" cx="310.5" cy="359.5" r="1.5" fill="#FF0004"/>
<circle id="70" cx="366.5" cy="358.5" r="1.5" fill="#FF0004"/>
<circle id="69" cx="256.5" cy="360.5" r="1.5" fill="#FF0004"/>
<circle id="68" cx="256.5" cy="366.5" r="1.5" fill="#FF0004"/>
<circle id="67" cx="257.5" cy="440.5" r="1.5" fill="#FF0004"/>
<circle id="66" cx="257.5" cy="428.5" r="1.5" fill="#FF0004"/>
<circle id="65" cx="311.5" cy="440.5" r="1.5" fill="#FF0004"/>
<circle id="64" cx="312.5" cy="462.5" r="1.5" fill="#FF0004"/>
<circle id="63" cx="312.5" cy="500.5" r="1.5" fill="#FF0004"/>
<circle id="62" cx="312.5" cy="518.5" r="1.5" fill="#FF0004"/>
<circle id="61" cx="313.5" cy="562.5" r="1.5" fill="#FF0004"/>
<circle id="60" cx="313.5" cy="576.5" r="1.5" fill="#FF0004"/>
<circle id="59" cx="368.5" cy="576.5" r="1.5" fill="#FF0004"/>
<circle id="58" cx="368.5" cy="582.5" r="1.5" fill="#FF0004"/>
<circle id="57" cx="268.5" cy="577.5" r="1.5" fill="#FF0004"/>
<circle id="56" cx="367.5" cy="366.5" r="1.5" fill="#FF0004"/>
<circle id="55" cx="256.5" cy="337.5" r="1.5" fill="#FF0004"/>
<circle id="54" cx="365.5" cy="286.5" r="1.5" fill="#FF0004"/>
<circle id="53" cx="365.5" cy="292.5" r="1.5" fill="#FF0004"/>
<circle id="52" cx="256.5" cy="210.5" r="1.5" fill="#FF0004"/>
<circle id="51" cx="256.5" cy="220.5" r="1.5" fill="#FF0004"/>
<circle id="50" cx="309.5" cy="198.5" r="1.5" fill="#FF0004"/>
<circle id="49" cx="308.5" cy="63.5" r="1.5" fill="#FF0004"/>
<circle id="48" cx="308.5" cy="79.5" r="1.5" fill="#FF0004"/>
<circle id="47" cx="307.5" cy="53.5" r="1.5" fill="#FF0004"/>
<circle id="46" cx="254.5" cy="65.5" r="1.5" fill="#FF0004"/>
<circle id="45" cx="254.5" cy="78.5" r="1.5" fill="#FF0004"/>
<circle id="44" cx="268.5" cy="584.5" r="1.5" fill="#FF0004"/>
<circle id="43" cx="269.5" cy="628.5" r="1.5" fill="#FF0004"/>
<circle id="42" cx="269.5" cy="641.5" r="1.5" fill="#FF0004"/>
<circle id="41" cx="202.5" cy="642.5" r="1.5" fill="#FF0004"/>
<circle id="40" cx="197.5" cy="28.5" r="1.5" fill="#FF0004"/>
<circle id="39" cx="88.5" cy="29.5" r="1.5" fill="#FF0004"/>
<circle id="38" cx="88.5" cy="44.5" r="1.5" fill="#FF0004"/>
<circle id="37" cx="88.5" cy="95.5" r="1.5" fill="#FF0004"/>
<circle id="36" cx="88.5" cy="111.5" r="1.5" fill="#FF0004"/>
<circle id="35" cx="111.5" cy="111.5" r="1.5" fill="#FF0004"/>
<circle id="34" cx="111.5" cy="120.5" r="1.5" fill="#FF0004"/>
<circle id="33" cx="155.5" cy="111.5" r="1.5" fill="#FF0004"/>
<circle id="32" cx="155.5" cy="118.5" r="1.5" fill="#FF0004"/>
<circle id="31" cx="66.5" cy="112.5" r="1.5" fill="#FF0004"/>
<circle id="30" cx="23.5" cy="112.5" r="1.5" fill="#FF0004"/>
<circle id="29" cx="23.5" cy="122.5" r="1.5" fill="#FF0004"/>
<circle id="28" cx="66.5" cy="122.5" r="1.5" fill="#FF0004"/>
<circle id="27" cx="23.5" cy="166.5" r="1.5" fill="#FF0004"/>
<circle id="26" cx="23.5" cy="190.5" r="1.5" fill="#FF0004"/>
<circle id="25" cx="90.5" cy="190.5" r="1.5" fill="#FF0004"/>
<circle id="24" cx="90.5" cy="198.5" r="1.5" fill="#FF0004"/>
<circle id="23" cx="89.5" cy="251.5" r="1.5" fill="#FF0004"/>
<circle id="22" cx="89.5" cy="267.5" r="1.5" fill="#FF0004"/>
<circle id="21" cx="24.5" cy="267.5" r="1.5" fill="#FF0004"/>
<circle id="20" cx="24.5" cy="280.5" r="1.5" fill="#FF0004"/>
<circle id="19" cx="24.5" cy="332.5" r="1.5" fill="#FF0004"/>
<circle id="18" cx="24.5" cy="340.5" r="1.5" fill="#FF0004"/>
<circle id="17" cx="88.5" cy="339.5" r="1.5" fill="#FF0004"/>
<circle id="16" cx="88.5" cy="360.5" r="1.5" fill="#FF0004"/>
<circle id="15" cx="156.5" cy="360.5" r="1.5" fill="#FF0004"/>
<circle id="14" cx="156.5" cy="374.5" r="1.5" fill="#FF0004"/>
<circle id="13" cx="25.5" cy="367.5" r="1.5" fill="#FF0004"/>
<circle id="12" cx="26.5" cy="423.5" r="1.5" fill="#FF0004"/>
<circle id="11" cx="26.5" cy="444.5" r="1.5" fill="#FF0004"/>
<circle id="10" cx="92.5" cy="444.5" r="1.5" fill="#FF0004"/>
<circle id="9" cx="92.5" cy="452.5" r="1.5" fill="#FF0004"/>
<circle id="8" cx="90.5" cy="504.5" r="1.5" fill="#FF0004"/>
<circle id="7" cx="91.5" cy="516.5" r="1.5" fill="#FF0004"/>
<circle id="6" cx="91.5" cy="554.5" r="1.5" fill="#FF0004"/>
<circle id="5" cx="91.5" cy="560.5" r="1.5" fill="#FF0004"/>
<circle id="4" cx="91.5" cy="604.5" r="1.5" fill="#FF0004"/>
<circle id="3" cx="92.5" cy="619.5" r="1.5" fill="#FF0004"/>
<circle id="2" cx="156.5" cy="266.5" r="1.5" fill="#FF0004"/>
<circle id="1" cx="156.5" cy="276.5" r="1.5" fill="#FF0004"/>
<rect id="background" x="0.5" y="0.5" width="396" height="653" stroke="black"/>
</g>
</svg>
