<svg width="1229" height="846" viewBox="0 0 1229 846" fill="none" xmlns="http://www.w3.org/2000/svg">
<g id="2-temp">
<rect id="background" x="0.5" y="0.5" width="1228" height="845" stroke="black"/>
<rect id="陈博" x="97.5" y="9.5" width="54" height="75" stroke="black"/>
<rect id="种放" x="103.5" y="109.5" width="39" height="60" stroke="black"/>
<rect id="穆修" x="97.5" y="238.5" width="27" height="58" stroke="black"/>
<rect id="许坚" x="126.5" y="238.5" width="27" height="58" stroke="black"/>
<rect id="周敦实" x="27.5" y="330.5" width="27" height="86" stroke="black"/>
<rect id="程顺" x="13.5" y="473.5" width="27" height="55" stroke="black"/>
<rect id="程颖" x="42.5" y="473.5" width="25" height="55" stroke="black"/>
<rect id="邵雍" x="94.5" y="460.5" width="25" height="60" stroke="black"/>
<rect id="范" x="123.5" y="454.5" width="30" height="92" stroke="black"/>
<rect id="季" x="123.5" y="334.5" width="30" height="92" stroke="black"/>
<rect id="李之才" x="96.5" y="336.5" width="25" height="86" stroke="black"/>
<rect id="司马光" x="91.5" y="571.5" width="28" height="70" stroke="black"/>
<rect id="刘牧" x="122.5" y="577.5" width="31" height="58" stroke="black"/>
<rect id="牛师德" x="87.5" y="658.5" width="35" height="72" stroke="black"/>
<rect id="吴必" x="123.5" y="655.5" width="33" height="57" stroke="black"/>
<rect id="子思" x="91.5" y="753.5" width="28" height="44" stroke="black"/>
<circle id="2" cx="130.5" cy="84.5" r="1.5" fill="#FF0004"/>
<circle id="1" cx="129.5" cy="105.5" r="1.5" fill="#FF0004"/>
<circle id="3" cx="124.5" cy="168.5" r="1.5" fill="#FF0004"/>
<circle id="4" cx="123.5" cy="212.5" r="1.5" fill="#FF0004"/>
<circle id="7" cx="139.5" cy="213.5" r="1.5" fill="#FF0004"/>
<circle id="8" cx="140.5" cy="233.5" r="1.5" fill="#FF0004"/>
<circle id="5" cx="108.5" cy="213.5" r="1.5" fill="#FF0004"/>
<circle id="6" cx="110.5" cy="234.5" r="1.5" fill="#FF0004"/>
<circle id="9" cx="109.5" cy="298.5" r="1.5" fill="#FF0004"/>
<circle id="10" cx="110.5" cy="317.5" r="1.5" fill="#FF0004"/>
<circle id="13" cx="112.5" cy="329.5" r="1.5" fill="#FF0004"/>
<circle id="14" cx="140.5" cy="297.5" r="1.5" fill="#FF0004"/>
<circle id="15" cx="140.5" cy="329.5" r="1.5" fill="#FF0004"/>
<circle id="16" cx="40.5" cy="416.5" r="1.5" fill="#FF0004"/>
<circle id="17" cx="41.5" cy="444.5" r="1.5" fill="#FF0004"/>
<circle id="18" cx="28.5" cy="444.5" r="1.5" fill="#FF0004"/>
<circle id="19" cx="29.5" cy="468.5" r="1.5" fill="#FF0004"/>
<circle id="20" cx="52.5" cy="444.5" r="1.5" fill="#FF0004"/>
<circle id="21" cx="52.5" cy="468.5" r="1.5" fill="#FF0004"/>
<circle id="22" cx="108.5" cy="424.5" r="1.5" fill="#FF0004"/>
<circle id="23" cx="109.5" cy="455.5" r="1.5" fill="#FF0004"/>
<circle id="24" cx="139.5" cy="428.5" r="1.5" fill="#FF0004"/>
<circle id="25" cx="140.5" cy="448.5" r="1.5" fill="#FF0004"/>
<circle id="26" cx="107.5" cy="525.5" r="1.5" fill="#FF0004"/>
<circle id="27" cx="107.5" cy="568.5" r="1.5" fill="#FF0004"/>
<circle id="28" cx="137.5" cy="547.5" r="1.5" fill="#FF0004"/>
<circle id="29" cx="136.5" cy="572.5" r="1.5" fill="#FF0004"/>
<circle id="30" cx="105.5" cy="640.5" r="1.5" fill="#FF0004"/>
<circle id="31" cx="105.5" cy="654.5" r="1.5" fill="#FF0004"/>
<circle id="32" cx="136.5" cy="635.5" r="1.5" fill="#FF0004"/>
<circle id="33" cx="137.5" cy="651.5" r="1.5" fill="#FF0004"/>
<circle id="34" cx="105.5" cy="732.5" r="1.5" fill="#FF0004"/>
<circle id="35" cx="105.5" cy="749.5" r="1.5" fill="#FF0004"/>
<circle id="11" cx="44.5" cy="327.5" r="1.5" fill="#FF0004"/>
<circle id="12" cx="44.5" cy="317.5" r="1.5" fill="#FF0004"/>
</g>
</svg>
