<svg width="1361" height="1367" viewBox="0 0 1361 1367" fill="none" xmlns="http://www.w3.org/2000/svg">
<g id="starmap1">
<g id="node">
<rect id="Rectangle 1" x="449.839" y="285.33" width="29.3089" height="25.8608" stroke="black" stroke-width="1.72405"/>
<rect id="Rectangle 2" x="492.94" y="271.538" width="22.4127" height="18.9646" stroke="black" stroke-width="1.72405"/>
<rect id="Rectangle 3" x="468.804" y="324.984" width="27.5848" height="25.8608" stroke="black" stroke-width="1.72405"/>
<rect id="Rectangle 4" x="518.801" y="311.191" width="20.6886" height="25.8608" stroke="black" stroke-width="1.72405"/>
<rect id="Rectangle 5" x="553.282" y="293.951" width="20.6886" height="27.5848" stroke="black" stroke-width="1.72405"/>
<rect id="Rectangle 6" x="536.042" y="256.022" width="18.9646" height="24.1367" stroke="black" stroke-width="1.72405"/>
<rect id="Rectangle 19" x="659.862" y="318.862" width="25.2759" height="18.2759" stroke="black" stroke-width="1.72405"/>
<rect id="Rectangle 20" x="640.862" y="345.862" width="19.2759" height="19.2759" stroke="black" stroke-width="1.72405"/>
<rect id="Rectangle 21" x="667.862" y="348.862" width="23.2759" height="19.2759" stroke="black" stroke-width="1.72405"/>
<rect id="Rectangle 22" x="665.862" y="372.862" width="27.2759" height="21.2759" stroke="black" stroke-width="1.72405"/>
<rect id="Rectangle 23" x="692.862" y="348.862" width="24.2759" height="22.2759" stroke="black" stroke-width="1.72405"/>
<rect id="Rectangle 24" x="680.862" y="417.862" width="19.2759" height="18.2759" stroke="black" stroke-width="1.72405"/>
<rect id="Rectangle 29" x="606.862" y="528.862" width="20.2759" height="18.2759" stroke="black" stroke-width="1.72405"/>
<rect id="Rectangle 30" x="587.862" y="552.862" width="17.2759" height="15.2759" stroke="black" stroke-width="1.72405"/>
<rect id="Rectangle 31" x="609.862" y="569.862" width="14.2759" height="13.2759" stroke="black" stroke-width="1.72405"/>
<rect id="Rectangle 32" x="625.862" y="546.862" width="18.2759" height="18.2759" stroke="black" stroke-width="1.72405"/>
<rect id="Rectangle 33" x="686.862" y="618.862" width="23.2759" height="26.2759" stroke="black" stroke-width="1.72405"/>
<rect id="Rectangle 34" x="727.862" y="612.862" width="23.2759" height="28.2759" stroke="black" stroke-width="1.72405"/>
<rect id="Rectangle 35" x="710.862" y="672.862" width="28.2759" height="25.2759" stroke="black" stroke-width="1.72405"/>
<rect id="Rectangle 36" x="743.862" y="663.862" width="28.2759" height="25.2759" stroke="black" stroke-width="1.72405"/>
<rect id="Rectangle 37" x="683.862" y="506.862" width="22.2759" height="25.2759" stroke="black" stroke-width="1.72405"/>
<rect id="Rectangle 38" x="786.862" y="475.862" width="28.2759" height="34.276" stroke="black" stroke-width="1.72405"/>
<rect id="Rectangle 39" x="826.862" y="520.862" width="41.276" height="39.276" stroke="black" stroke-width="1.72405"/>
<rect id="Rectangle 40" x="848.862" y="588.862" width="40.276" height="45.276" stroke="black" stroke-width="1.72405"/>
<rect id="Rectangle 41" x="869.862" y="657.862" width="39.276" height="40.276" stroke="black" stroke-width="1.72405"/>
<rect id="Rectangle 42" x="866.862" y="719.862" width="34.276" height="38.276" stroke="black" stroke-width="1.72405"/>
<rect id="Rectangle 43" x="805.862" y="770.862" width="34.276" height="35.276" stroke="black" stroke-width="1.72405"/>
<rect id="Rectangle 59" x="723.862" y="824.862" width="26.2759" height="21.2759" stroke="black" stroke-width="1.72405"/>
<rect id="Rectangle 60" x="713.862" y="851.862" width="19.2759" height="28.2759" stroke="black" stroke-width="1.72405"/>
<rect id="Rectangle 61" x="620.862" y="818.862" width="21.2759" height="23.2759" stroke="black" stroke-width="1.72405"/>
<rect id="Rectangle 62" x="625.862" y="791.862" width="27.2759" height="23.2759" stroke="black" stroke-width="1.72405"/>
<rect id="Rectangle 63" x="538.862" y="782.862" width="19.2759" height="26.2759" stroke="black" stroke-width="1.72405"/>
<rect id="Rectangle 64" x="597.862" y="780.862" width="18.2759" height="19.2759" stroke="black" stroke-width="1.72405"/>
<rect id="Rectangle 65" x="552.862" y="759.862" width="20.2759" height="19.2759" stroke="black" stroke-width="1.72405"/>
<rect id="Rectangle 66" x="586.862" y="808.862" width="21.2759" height="26.2759" stroke="black" stroke-width="1.72405"/>
<rect id="Rectangle 67" x="534.862" y="707.862" width="23.2759" height="25.2759" stroke="black" stroke-width="1.72405"/>
<rect id="Rectangle 140" x="629.862" y="657.862" width="25.2759" height="22.2759" stroke="black" stroke-width="1.72405"/>
<rect id="Rectangle 141" x="663.862" y="648.862" width="24.2759" height="20.2759" stroke="black" stroke-width="1.72405"/>
<rect id="Rectangle 142" x="559.862" y="681.862" width="42.276" height="32.276" stroke="black" stroke-width="1.72405"/>
<rect id="Rectangle 143" x="604.862" y="670.862" width="23.2759" height="18.2759" stroke="black" stroke-width="1.72405"/>
<rect id="Rectangle 68" x="521.862" y="683.862" width="18.2759" height="19.2759" stroke="black" stroke-width="1.72405"/>
<rect id="Rectangle 69" x="96.862" y="635.862" width="28.2759" height="31.2759" stroke="black" stroke-width="1.72405"/>
<rect id="Rectangle 70" x="155.862" y="623.862" width="33.276" height="36.276" stroke="black" stroke-width="1.72405"/>
<rect id="Rectangle 71" x="184.862" y="694.862" width="27.2759" height="38.276" stroke="black" stroke-width="1.72405"/>
<rect id="Rectangle 72" x="246.862" y="687.862" width="32.276" height="32.276" stroke="black" stroke-width="1.72405"/>
<rect id="Rectangle 73" x="239.862" y="640.862" width="35.276" height="31.2759" stroke="black" stroke-width="1.72405"/>
<rect id="Rectangle 74" x="425.862" y="887.862" width="28.2759" height="25.2759" stroke="black" stroke-width="1.72405"/>
<rect id="Rectangle 75" x="395.862" y="914.862" width="24.2759" height="22.2759" stroke="black" stroke-width="1.72405"/>
<rect id="Rectangle 76" x="436.862" y="923.862" width="28.2759" height="25.2759" stroke="black" stroke-width="1.72405"/>
<rect id="Rectangle 77" x="444.862" y="964.862" width="29.2759" height="28.2759" stroke="black" stroke-width="1.72405"/>
<rect id="Rectangle 78" x="504.862" y="964.862" width="20.2759" height="23.2759" stroke="black" stroke-width="1.72405"/>
<rect id="Rectangle 79" x="534.862" y="944.862" width="24.2759" height="18.2759" stroke="black" stroke-width="1.72405"/>
<rect id="Rectangle 80" x="538.862" y="977.862" width="23.2759" height="19.2759" stroke="black" stroke-width="1.72405"/>
<rect id="Rectangle 81" x="616.862" y="987.862" width="27.2759" height="30.2759" stroke="black" stroke-width="1.72405"/>
<rect id="Rectangle 82" x="715.862" y="941.862" width="32.276" height="31.2759" stroke="black" stroke-width="1.72405"/>
<rect id="Rectangle 83" x="485.862" y="896.862" width="28.2759" height="33.276" stroke="black" stroke-width="1.72405"/>
<rect id="Rectangle 84" x="563.862" y="890.862" width="35.276" height="26.2759" stroke="black" stroke-width="1.72405"/>
<rect id="Rectangle 85" x="648.862" y="893.862" width="40.276" height="28.2759" stroke="black" stroke-width="1.72405"/>
<rect id="Rectangle 86" x="725.862" y="890.862" width="29.2759" height="26.2759" stroke="black" stroke-width="1.72405"/>
<rect id="Rectangle 87" x="778.862" y="948.862" width="28.2759" height="24.2759" stroke="black" stroke-width="1.72405"/>
<rect id="Rectangle 88" x="865.862" y="923.862" width="26.2759" height="23.2759" stroke="black" stroke-width="1.72405"/>
<rect id="Rectangle 89" x="871.862" y="863.862" width="23.2759" height="23.2759" stroke="black" stroke-width="1.72405"/>
<rect id="Rectangle 90" x="896.862" y="949.862" width="20.2759" height="25.2759" stroke="black" stroke-width="1.72405"/>
<rect id="Rectangle 91" x="918.862" y="936.862" width="19.2759" height="23.2759" stroke="black" stroke-width="1.72405"/>
<rect id="Rectangle 92" x="939.862" y="941.862" width="17.2759" height="22.2759" stroke="black" stroke-width="1.72405"/>
<rect id="Rectangle 93" x="942.862" y="965.862" width="19.2759" height="21.2759" stroke="black" stroke-width="1.72405"/>
<rect id="Rectangle 94" x="931.862" y="981.862" width="16.2759" height="20.2759" stroke="black" stroke-width="1.72405"/>
<rect id="Rectangle 95" x="900.862" y="979.862" width="25.2759" height="22.2759" stroke="black" stroke-width="1.72405"/>
<rect id="Rectangle 96" x="912.862" y="816.862" width="25.2759" height="22.2759" stroke="black" stroke-width="1.72405"/>
<rect id="Rectangle 114" x="920.862" y="547.862" width="21.2759" height="22.2759" stroke="black" stroke-width="1.72405"/>
<rect id="Rectangle 128" x="769.862" y="262.862" width="22.2759" height="18.2759" stroke="black" stroke-width="1.72405"/>
<rect id="Rectangle 129" x="792.862" y="268.862" width="16.2759" height="22.2759" stroke="black" stroke-width="1.72405"/>
<rect id="Rectangle 130" x="813.862" y="278.862" width="16.2759" height="22.2759" stroke="black" stroke-width="1.72405"/>
<rect id="Rectangle 131" x="831.862" y="290.862" width="17.2759" height="20.2759" stroke="black" stroke-width="1.72405"/>
<rect id="Rectangle 132" x="854.862" y="321.862" width="20.2759" height="21.2759" stroke="black" stroke-width="1.72405"/>
<rect id="Rectangle 133" x="868.862" y="344.862" width="15.2759" height="21.2759" stroke="black" stroke-width="1.72405"/>
<rect id="Rectangle 134" x="879.862" y="374.862" width="15.2759" height="17.2759" stroke="black" stroke-width="1.72405"/>
<rect id="Rectangle 115" x="958.862" y="542.862" width="18.2759" height="22.2759" stroke="black" stroke-width="1.72405"/>
<rect id="Rectangle 116" x="929.862" y="585.862" width="16.2759" height="18.2759" stroke="black" stroke-width="1.72405"/>
<rect id="Rectangle 117" x="962.862" y="588.862" width="16.2759" height="18.2759" stroke="black" stroke-width="1.72405"/>
<rect id="Rectangle 118" x="932.862" y="619.862" width="22.2759" height="17.2759" stroke="black" stroke-width="1.72405"/>
<rect id="Rectangle 119" x="966.862" y="623.862" width="18.2759" height="17.2759" stroke="black" stroke-width="1.72405"/>
<rect id="Rectangle 120" x="1015.86" y="561.862" width="25.2759" height="18.2759" stroke="black" stroke-width="1.72405"/>
<rect id="Rectangle 121" x="1006.86" y="532.862" width="23.2759" height="20.2759" stroke="black" stroke-width="1.72405"/>
<rect id="Rectangle 122" x="1039.86" y="510.862" width="22.2759" height="23.2759" stroke="black" stroke-width="1.72405"/>
<rect id="Rectangle 123" x="1082.86" y="491.862" width="20.2759" height="23.2759" stroke="black" stroke-width="1.72405"/>
<rect id="Rectangle 124" x="1051.86" y="541.862" width="25.2759" height="21.2759" stroke="black" stroke-width="1.72405"/>
<rect id="Rectangle 125" x="1086.86" y="524.862" width="26.2759" height="24.2759" stroke="black" stroke-width="1.72405"/>
<rect id="Rectangle 126" x="1063.86" y="569.862" width="28.2759" height="17.2759" stroke="black" stroke-width="1.72405"/>
<rect id="Rectangle 127" x="1074.86" y="591.862" width="17.2759" height="24.2759" stroke="black" stroke-width="1.72405"/>
<rect id="Rectangle 97" x="920.862" y="846.862" width="21.2759" height="25.2759" stroke="black" stroke-width="1.72405"/>
<rect id="Rectangle 98" x="949.862" y="822.862" width="27.2759" height="24.2759" stroke="black" stroke-width="1.72405"/>
<rect id="Rectangle 99" x="1006.86" y="826.862" width="30.2759" height="35.276" stroke="black" stroke-width="1.72405"/>
<rect id="Rectangle 100" x="1017.86" y="886.862" width="29.2759" height="33.276" stroke="black" stroke-width="1.72405"/>
<rect id="Rectangle 104" x="782.862" y="885.862" width="22.2759" height="17.2759" stroke="black" stroke-width="1.72405"/>
<rect id="Rectangle 105" x="789.862" y="906.862" width="18.2759" height="20.2759" stroke="black" stroke-width="1.72405"/>
<rect id="Rectangle 106" x="815.862" y="900.862" width="23.2759" height="18.2759" stroke="black" stroke-width="1.72405"/>
<rect id="Rectangle 107" x="811.862" y="876.862" width="23.2759" height="16.2759" stroke="black" stroke-width="1.72405"/>
<rect id="Rectangle 108" x="833.862" y="839.862" width="18.2759" height="25.2759" stroke="black" stroke-width="1.72405"/>
<rect id="Rectangle 109" x="828.862" y="804.862" width="23.2759" height="25.2759" stroke="black" stroke-width="1.72405"/>
<rect id="Rectangle 110" x="820.862" y="963.862" width="24.2759" height="20.2759" stroke="black" stroke-width="1.72405"/>
<rect id="Rectangle 111" x="814.862" y="987.862" width="16.2759" height="20.2759" stroke="black" stroke-width="1.72405"/>
<rect id="Rectangle 112" x="837.862" y="1003.86" width="16.2759" height="18.2759" stroke="black" stroke-width="1.72405"/>
<rect id="Rectangle 113" x="842.862" y="973.862" width="28.2759" height="19.2759" stroke="black" stroke-width="1.72405"/>
<rect id="Rectangle 101" x="1070.86" y="908.862" width="33.276" height="31.2759" stroke="black" stroke-width="1.72405"/>
<rect id="Rectangle 102" x="1134.86" y="905.862" width="30.2759" height="38.276" stroke="black" stroke-width="1.72405"/>
<rect id="Rectangle 103" x="1175.86" y="871.862" width="26.2759" height="34.276" stroke="black" stroke-width="1.72405"/>
<rect id="Rectangle 44" x="790.862" y="820.862" width="24.2759" height="28.2759" stroke="black" stroke-width="1.72405"/>
<path id="Rectangle 58" d="M824.138 847.862V873.138H792.862V847.862H824.138Z" stroke="black" stroke-width="1.72405"/>
<rect id="Rectangle 25" x="680.862" y="439.862" width="19.2759" height="15.2759" stroke="black" stroke-width="1.72405"/>
<rect id="Rectangle 26" x="694.862" y="451.862" width="19.2759" height="15.2759" stroke="black" stroke-width="1.72405"/>
<rect id="Rectangle 27" x="718.862" y="414.862" width="23.2759" height="15.2759" stroke="black" stroke-width="1.72405"/>
<rect id="Rectangle 28" x="724.862" y="438.862" width="23.2759" height="23.2759" stroke="black" stroke-width="1.72405"/>
<rect id="Rectangle 45" x="767.862" y="389.862" width="19.2759" height="23.2759" stroke="black" stroke-width="1.72405"/>
<rect id="Rectangle 52" x="751.862" y="335.862" width="18.2759" height="16.2759" stroke="black" stroke-width="1.72405"/>
<rect id="Rectangle 53" x="772.862" y="326.862" width="11.2759" height="17.2759" stroke="black" stroke-width="1.72405"/>
<rect id="Rectangle 54" x="787.862" y="326.862" width="17.2759" height="17.2759" stroke="black" stroke-width="1.72405"/>
<rect id="Rectangle 55" x="808.862" y="335.862" width="17.2759" height="19.2759" stroke="black" stroke-width="1.72405"/>
<rect id="Rectangle 56" x="817.862" y="355.862" width="20.2759" height="12.2759" stroke="black" stroke-width="1.72405"/>
<rect id="Rectangle 57" x="782.862" y="364.862" width="17.2759" height="21.2759" stroke="black" stroke-width="1.72405"/>
<rect id="Rectangle 46" x="782.862" y="417.862" width="14.2759" height="21.2759" stroke="black" stroke-width="1.72405"/>
<rect id="Rectangle 47" x="778.862" y="440.862" width="15.2759" height="15.2759" stroke="black" stroke-width="1.72405"/>
<rect id="Rectangle 48" x="769.862" y="460.862" width="11.2759" height="13.2759" stroke="black" stroke-width="1.72405"/>
<rect id="Rectangle 49" x="761.862" y="478.862" width="19.2759" height="16.2759" stroke="black" stroke-width="1.72405"/>
<rect id="Rectangle 50" x="749.862" y="499.862" width="20.2759" height="14.2759" stroke="black" stroke-width="1.72405"/>
<rect id="Rectangle 51" x="735.862" y="520.862" width="28.2759" height="30.2759" stroke="black" stroke-width="1.72405"/>
<rect id="Rectangle 7" x="515.353" y="392.222" width="18.9646" height="24.1367" stroke="black" stroke-width="1.72405"/>
<rect id="Rectangle 8" x="546.386" y="364.637" width="22.4127" height="22.4127" stroke="black" stroke-width="1.72405"/>
<rect id="Rectangle 9" x="565.35" y="393.946" width="20.6886" height="25.8608" stroke="black" stroke-width="1.72405"/>
<rect id="Rectangle 10" x="563.626" y="435.323" width="22.4127" height="22.4127" stroke="black" stroke-width="1.72405"/>
<rect id="Rectangle 11" x="503.285" y="423.254" width="20.6886" height="27.5848" stroke="black" stroke-width="1.72405"/>
<rect id="Rectangle 13" x="420.53" y="450.839" width="25.8608" height="20.6886" stroke="black" stroke-width="1.72405"/>
<rect id="Rectangle 12" x="484.32" y="356.016" width="36.2051" height="25.8608" stroke="black" stroke-width="1.72405"/>
<rect id="Rectangle 14" x="394.67" y="502.561" width="34.481" height="29.3089" stroke="black" stroke-width="1.72405"/>
<rect id="Rectangle 15" x="394.67" y="562.903" width="29.3089" height="31.0329" stroke="black" stroke-width="1.72405"/>
<rect id="Rectangle 16" x="399.842" y="628.416" width="25.8608" height="27.5848" stroke="black" stroke-width="1.72405"/>
<rect id="Rectangle 135" x="467.862" y="611.862" width="19.2759" height="17.2759" stroke="black" stroke-width="1.72405"/>
<rect id="Rectangle 136" x="493.862" y="607.862" width="18.2759" height="15.2759" stroke="black" stroke-width="1.72405"/>
<rect id="Rectangle 137" x="513.862" y="616.862" width="19.2759" height="15.2759" stroke="black" stroke-width="1.72405"/>
<rect id="Rectangle 138" x="515.862" y="640.862" width="21.2759" height="15.2759" stroke="black" stroke-width="1.72405"/>
<rect id="Rectangle 139" x="491.862" y="640.862" width="9.27595" height="9.27595" stroke="black" stroke-width="1.72405"/>
<rect id="Rectangle 17" x="434.323" y="721.515" width="24.1367" height="25.8608" stroke="black" stroke-width="1.72405"/>
<rect id="Rectangle 18" x="467.08" y="807.718" width="20.6886" height="24.1367" stroke="black" stroke-width="1.72405"/>
</g>
<rect id="Rectangle 19_2" x="0.5" y="0.5" width="1360" height="1366" stroke="black"/>
<g id="link">
<path id="Vector 117" d="M787 443L789 437" stroke="black"/>
<path id="Vector 139" d="M634 824.5L639.5 812.5" stroke="black"/>
<path id="Vector 118" d="M787.5 421.5L780 409.5" stroke="black"/>
<path id="Vector 119" d="M781.5 396.5L791.5 384" stroke="black"/>
<path id="Vector 120" d="M785.5 369.5L768.5 350" stroke="black"/>
<path id="Vector 121" d="M790 365.5L779.5 342.5" stroke="black"/>
<path id="Vector 122" d="M791.5 367.5L794.5 343" stroke="black"/>
<path id="Vector 123" d="M793 369L813 351" stroke="black"/>
<path id="Vector 124" d="M797.5 378L819.5 361" stroke="black"/>
<path id="Vector 129" d="M885.5 756C885.5 788 874.675 790.143 837.5 790.5" stroke="black"/>
<path id="Vector 89" d="M470 306.5L482 330.5" stroke="black" stroke-width="2"/>
<path id="Vector 90" d="M488 326.5L503 285" stroke="black" stroke-width="2"/>
<path id="Vector 91" d="M510.5 285.5L526.5 317" stroke="black" stroke-width="2"/>
<path id="Vector 92" d="M527.5 314.5L541.5 275.5" stroke="black" stroke-width="2"/>
<path id="Vector 93" d="M550 276L559.5 299" stroke="black" stroke-width="2"/>
<path id="Vector 100" d="M551 381.5L533.5 397" stroke="black" stroke-width="2"/>
<path id="Vector 101" d="M519 416V427" stroke="black" stroke-width="2"/>
<path id="Vector 102" d="M562 383L573 399" stroke="black" stroke-width="2"/>
<path id="Vector 103" d="M577 416.5L573 439.5" stroke="black" stroke-width="2"/>
<path id="Vector 99" d="M446.5 744C456.74 779.817 462.561 800.48 470 816" stroke="black" stroke-width="2"/>
<path id="Vector 94" d="M497 373C470.233 404.103 456.925 421.626 436 453" stroke="black" stroke-width="2"/>
<path id="Vector 95" d="M429 468.5L416.5 504.5" stroke="black" stroke-width="2"/>
<path id="Vector 96" d="M409.5 528V566" stroke="black" stroke-width="2"/>
<path id="Vector 97" d="M408 595.5C407.17 610.669 408.106 619.216 411.5 634.5" stroke="black" stroke-width="2"/>
<path id="Vector 98" d="M416.5 654C425.999 687.619 430.439 702.048 438 726" stroke="black" stroke-width="2"/>
<path id="Vector 104" d="M680 332L703 355" stroke="black"/>
<path id="Vector 105" d="M653 348L670 335" stroke="black"/>
<path id="Vector 106" d="M658.5 362L667.5 381.5" stroke="black"/>
<path id="Vector 107" d="M686 380.5L703 366.5" stroke="black"/>
<path id="Vector 108" d="M695 422.5C705.349 416.059 711.151 418.27 721.5 422.5" stroke="black"/>
<path id="Vector 109" d="M689 434C687.21 438.153 687.294 440.21 689 443.5" stroke="black"/>
<path id="Vector 110" d="M692.5 453C693.651 457.229 694.857 458.896 698.5 460" stroke="black"/>
<path id="Vector 111" d="M714 459.5C720.132 458.998 723.207 457.145 728.5 453" stroke="black"/>
<path id="Vector 112" d="M733.5 445C734.71 440.069 735.289 437.212 733.5 429.5" stroke="black"/>
<path id="Vector 113" d="M753.5 523L759.5 513" stroke="black"/>
<path id="Vector 114" d="M764.5 502.5L768.5 492" stroke="black"/>
<path id="Vector 115" d="M773.5 479.5L777 470.5" stroke="black"/>
<path id="Vector 116" d="M777 461L782 453.5" stroke="black"/>
<path id="Vector 125" d="M800.5 493.5C814.5 486.5 837.5 510 843 529.5" stroke="black"/>
<path id="Vector 126" d="M855 554C852 570 871 580.5 871 588.5" stroke="black"/>
<path id="Vector 127" d="M876.5 625.5C883 642.5 869 645 876.5 666" stroke="black"/>
<path id="Vector 128" d="M891 691.5V724.5" stroke="black"/>
<path id="Vector 130" d="M817.5 797.5C813.019 808.565 811.833 815.171 811.5 827.5" stroke="black"/>
<path id="Vector 131" d="M806 844.5V857.5" stroke="black"/>
<path id="Vector 132" d="M609.5 542L596.5 554" stroke="black"/>
<path id="Vector 133" d="M621 543.5L631 551.5" stroke="black"/>
<path id="Vector 134" d="M632.5 562L620.5 572.5" stroke="black"/>
<path id="Vector 135" d="M613 574L601 565.5" stroke="black"/>
<path id="Vector 136" d="M707 633.5C716.475 627.611 721.637 625.806 730.5 626" stroke="black"/>
<path id="Vector 137" d="M744 640C746.446 652.002 747.32 658.511 747.5 669.5" stroke="black"/>
<path id="Vector 138" d="M736.5 682.5L751.5 679" stroke="black"/>
<path id="Vector 140" d="M790.5 272L796 275" stroke="black"/>
<path id="Vector 141" d="M808 280.5L817 290" stroke="black"/>
<path id="Vector 142" d="M828.5 290.5L834.5 298" stroke="black"/>
<path id="Vector 143" d="M847 307.5L856.5 326.5" stroke="black"/>
<path id="Vector 144" d="M867.5 341L873 352" stroke="black"/>
<path id="Vector 145" d="M878 364L883 379" stroke="black"/>
<path id="Vector 146" d="M429.5 909.5L415 919.5" stroke="black"/>
<path id="Vector 147" d="M415.5 926.5L440.5 936.5" stroke="black"/>
<path id="Vector 148" d="M522 971.5L537 956" stroke="black"/>
<path id="Vector 149" d="M521 977.5L544.5 989" stroke="black"/>
<path id="Vector 150" d="M552 982L551 960" stroke="black"/>
<path id="Vector 151" d="M500.5 901.5C510.727 880.188 531 894.5 566 900" stroke="black"/>
<path id="Vector 152" d="M588.5 893C622 889.5 626.5 901.5 654 907" stroke="black"/>
<path id="Vector 153" d="M670 896C694.577 895.529 707.232 897.754 729 903.5" stroke="black"/>
<path id="Vector 154" d="M753 908L778.5 953.5" stroke="black"/>
<path id="Vector 155" d="M804 957C830.55 941.945 850.5 944.5 867.5 939" stroke="black"/>
<path id="Vector 156" d="M887.5 931C890.604 928.21 888.086 911.299 885.5 888" stroke="black"/>
<path id="Vector 157" d="M827.5 979.5V991.5" stroke="black"/>
<path id="Vector 158" d="M841 979.5L846.5 981.5" stroke="black"/>
<path id="Vector 159" d="M855.5 991.5L849 1006.5" stroke="black"/>
<path id="Vector 160" d="M830 1002.5L840 1012" stroke="black"/>
<path id="Vector 161" d="M909 971C909.111 975.153 909.551 977.232 911 980.5" stroke="black"/>
<path id="Vector 162" d="M913 961L919.5 951.5" stroke="black"/>
<path id="Vector 163" d="M935.5 948L942 949" stroke="black"/>
<path id="Vector 164" d="M951 963L951.5 968" stroke="black"/>
<path id="Vector 165" d="M947.5 983L944.5 986.5" stroke="black"/>
<path id="Vector 166" d="M934 988.5C929.77 990.315 927.248 990.149 922.5 988" stroke="black"/>
<path id="Vector 167" d="M929 836.5L930 850.5" stroke="black"/>
<path id="Vector 168" d="M934.5 830.5L952.5 834" stroke="black"/>
<path id="Vector 169" d="M1021.5 858.5L1022.5 893.5" stroke="black"/>
<path id="Vector 170" d="M1043 914L1072.5 922.5" stroke="black"/>
<path id="Vector 171" d="M1100.5 927H1137" stroke="black"/>
<path id="Vector 172" d="M1161.5 924C1176.7 917.017 1184.1 912.225 1190 898" stroke="black"/>
<path id="Vector 173" d="M939 560L959.5 557.5" stroke="black"/>
<path id="Vector 174" d="M965 563L939 588.5" stroke="black"/>
<path id="Vector 175" d="M942.5 597C951.374 593.718 956.12 593.077 964 595" stroke="black"/>
<path id="Vector 176" d="M967.5 605L947 622.5" stroke="black"/>
<path id="Vector 177" d="M953 632.5L969.5 632" stroke="black"/>
<path id="Vector 178" d="M1026 538L1043 526.5" stroke="black"/>
<path id="Vector 179" d="M1060 521L1084 507" stroke="black"/>
<path id="Vector 180" d="M1037.5 570L1055 557" stroke="black"/>
<path id="Vector 181" d="M1068 562L1070.5 572.5" stroke="black"/>
<path id="Vector 182" d="M1083 585.5L1083.5 594" stroke="black"/>
<path id="Vector 183" d="M1075.5 551L1088.5 536" stroke="black"/>
<path id="Vector 184" d="M123.5 654.5L158.5 646" stroke="black"/>
<path id="Vector 185" d="M173 659C176.109 677.165 181.093 685.962 191.5 701" stroke="black"/>
<path id="Vector 186" d="M211.5 713.5L251.5 708.5" stroke="black"/>
<path id="Vector 187" d="M257.5 691.5L260 669" stroke="black"/>
<path id="Vector 188" d="M482.5 626L494 642.5" stroke="black"/>
<path id="Vector 189" d="M501.5 622.5L496 642" stroke="black"/>
<path id="Vector 190" d="M500.5 643L520.5 630.5" stroke="black"/>
<path id="Vector 191" d="M501 649.5L519 651" stroke="black"/>
<path id="Vector 192" d="M601 695C605.719 692.193 606.974 690.924 610.5 686" stroke="black"/>
<path id="Vector 193" d="M622 685C630.394 684.152 635.325 686.779 643 676" stroke="black"/>
<path id="Vector 194" d="M649.5 672.5L667.5 664.5" stroke="black"/>
</g>
</g>
</svg>
