<?xml version="1.0" ?>
<svg xmlns="http://www.w3.org/2000/svg" xmlns:ev="http://www.w3.org/2001/xml-events" xmlns:xlink="http://www.w3.org/1999/xlink" baseProfile="full" height="600px" version="1.1" viewBox="413.3590259321762 643.7717029303885 37.31809364319203 89.73756000054874" width="250px">
	<defs/>
	<path d="M 416.5,654.0 C 425.999,687.619 430.439,702.048 438.0,726.0" fill="none" stroke="#000000" stroke-width="0.07471903413867506"/>
	<path d="M 416.5,654.0 L 426.123245468797,651.2809658613254" fill="none" stroke="#000000" stroke-width="0.07471903413867506"/>
	<path d="M 416.55693335744,654.201483949704 L 426.1800697663827,651.4820638543746" fill="none" stroke="#000000" stroke-width="0.07471903413867506"/>
	<path d="M 416.61374569152,654.402508717632 L 426.2367724890131,651.6827007731753" fill="none" stroke="#000000" stroke-width="0.07471903413867506"/>
	<path d="M 416.67043739488,654.603075682008 L 426.29335402770045,651.8828779910693" fill="none" stroke="#000000" stroke-width="0.07471903413867506"/>
	<path d="M 416.72700886016,654.803186221056 L 426.3498147734646,652.0825968814328" fill="none" stroke="#000000" stroke-width="0.07471903413867506"/>
	<path d="M 416.78346048,655.002841713 L 426.406155117333,652.2818588176767" fill="none" stroke="#000000" stroke-width="0.07471903413867506"/>
	<path d="M 416.83979264704,655.202043536064 L 426.46237545034165,652.480665173248" fill="none" stroke="#000000" stroke-width="0.07471903413867506"/>
	<path d="M 416.89600575392,655.400793068472 L 426.51847616353416,652.6790173216295" fill="none" stroke="#000000" stroke-width="0.07471903413867506"/>
	<path d="M 416.95210019328,655.599091688448 L 426.5744576479628,652.8769166363417" fill="none" stroke="#000000" stroke-width="0.07471903413867506"/>
	<path d="M 417.00807635776,655.796940774216 L 426.6303202946885,653.0743644909426" fill="none" stroke="#000000" stroke-width="0.07471903413867506"/>
	<path d="M 417.06393464,655.994341704 L 426.68606449478096,653.2713622590292" fill="none" stroke="#000000" stroke-width="0.07471903413867506"/>
	<path d="M 417.11967543264,656.191295856024 L 426.74169063931885,653.4679113142377" fill="none" stroke="#000000" stroke-width="0.07471903413867506"/>
	<path d="M 417.17529912832,656.387804608512 L 426.79719911939026,653.6640130302444" fill="none" stroke="#000000" stroke-width="0.07471903413867506"/>
	<path d="M 417.23080611968,656.583869339688 L 426.8525903260927,653.8596687807668" fill="none" stroke="#000000" stroke-width="0.07471903413867506"/>
	<path d="M 417.28619679936,656.779491427776 L 426.90786465053344,654.0548799395641" fill="none" stroke="#000000" stroke-width="0.07471903413867506"/>
	<path d="M 417.34147156,656.974672251 L 426.96302248382943,654.2496478804379" fill="none" stroke="#000000" stroke-width="0.07471903413867506"/>
	<path d="M 417.39663079424,657.169413187584 L 427.0180642171081,654.4439739772333" fill="none" stroke="#000000" stroke-width="0.07471903413867506"/>
	<path d="M 417.45167489472,657.363715615752 L 427.07299024150694,654.6378596038392" fill="none" stroke="#000000" stroke-width="0.07471903413867506"/>
	<path d="M 417.50660425408,657.557580913728 L 427.1278009481744,654.8313061341897" fill="none" stroke="#000000" stroke-width="0.07471903413867506"/>
	<path d="M 417.56141926496,657.751010459736 L 427.18249672826954,655.0243149422647" fill="none" stroke="#000000" stroke-width="0.07471903413867506"/>
	<path d="M 417.61612032,657.944005632 L 427.23707797296237,655.2168874020905" fill="none" stroke="#000000" stroke-width="0.07471903413867506"/>
	<path d="M 417.67070781184,658.136567808744 L 427.2915450734345,655.4090248877409" fill="none" stroke="#000000" stroke-width="0.07471903413867506"/>
	<path d="M 417.72518213312003,658.328698368192 L 427.34589842087894,655.6007287733377" fill="none" stroke="#000000" stroke-width="0.07471903413867506"/>
	<path d="M 417.77954367648,658.520398688568 L 427.4001384065004,655.7920004330517" fill="none" stroke="#000000" stroke-width="0.07471903413867506"/>
	<path d="M 417.83379283456003,658.711670148096 L 427.4542654215157,655.9828412411041" fill="none" stroke="#000000" stroke-width="0.07471903413867506"/>
	<path d="M 417.88793,658.902514125 L 427.50827985715387,656.1732525717664" fill="none" stroke="#000000" stroke-width="0.07471903413867506"/>
	<path d="M 417.94195556544,659.092931997504 L 427.56218210465664,656.3632357993617" fill="none" stroke="#000000" stroke-width="0.07471903413867506"/>
	<path d="M 417.99586992352,659.282925143832 L 427.6159725552781,656.5527922982658" fill="none" stroke="#000000" stroke-width="0.07471903413867506"/>
	<path d="M 418.04967346688,659.472494942208 L 427.6696516002859,656.7419234429073" fill="none" stroke="#000000" stroke-width="0.07471903413867506"/>
	<path d="M 418.10336658816,659.661642770856 L 427.72321963096033,656.9306306077697" fill="none" stroke="#000000" stroke-width="0.07471903413867506"/>
	<path d="M 418.15694968,659.850370008 L 427.77667703859566,657.1189151673909" fill="none" stroke="#000000" stroke-width="0.07471903413867506"/>
	<path d="M 418.21042313504,660.038678031864 L 427.8300242144997,657.3067784963653" fill="none" stroke="#000000" stroke-width="0.07471903413867506"/>
	<path d="M 418.26378734592,660.226568220672 L 427.8832615499943,657.4942219693436" fill="none" stroke="#000000" stroke-width="0.07471903413867506"/>
	<path d="M 418.31704270528,660.4140419526481 L 427.93638943641577,657.6812469610345" fill="none" stroke="#000000" stroke-width="0.07471903413867506"/>
	<path d="M 418.37018960576,660.601100606016 L 427.98940826511466,657.8678548462053" fill="none" stroke="#000000" stroke-width="0.07471903413867506"/>
	<path d="M 418.42322844,660.787745559 L 428.0423184274566,658.054046999683" fill="none" stroke="#000000" stroke-width="0.07471903413867506"/>
	<path d="M 418.47615960064,660.973978189824 L 428.09512031482217,658.2398247963547" fill="none" stroke="#000000" stroke-width="0.07471903413867506"/>
	<path d="M 418.52898348032,661.159799876712 L 428.14781431860723,658.4251896111688" fill="none" stroke="#000000" stroke-width="0.07471903413867506"/>
	<path d="M 418.58170047168,661.345211997888 L 428.20040083022343,658.6101428191364" fill="none" stroke="#000000" stroke-width="0.07471903413867506"/>
	<path d="M 418.63431096736,661.530215931576 L 428.25288024109807,658.7946857953315" fill="none" stroke="#000000" stroke-width="0.07471903413867506"/>
	<path d="M 418.68681536,661.714813056 L 428.3052529426748,658.9788199148921" fill="none" stroke="#000000" stroke-width="0.07471903413867506"/>
	<path d="M 418.73921404224,661.8990047493841 L 428.3575193264136,659.1625465530217" fill="none" stroke="#000000" stroke-width="0.07471903413867506"/>
	<path d="M 418.79150740672003,662.082792389952 L 428.40967978379115,659.3458670849892" fill="none" stroke="#000000" stroke-width="0.07471903413867506"/>
	<path d="M 418.84369584608,662.266177355928 L 428.4617347063011,659.5287828861309" fill="none" stroke="#000000" stroke-width="0.07471903413867506"/>
	<path d="M 418.89577975296,662.449161025536 L 428.5136844854546,659.7112953318509" fill="none" stroke="#000000" stroke-width="0.07471903413867506"/>
	<path d="M 418.94775952,662.631744777 L 428.56552951277996,659.893405797622" fill="none" stroke="#000000" stroke-width="0.07471903413867506"/>
	<path d="M 418.99963553984,662.813929988544 L 428.6172701798236,660.0751156589869" fill="none" stroke="#000000" stroke-width="0.07471903413867506"/>
	<path d="M 419.05140820512,662.995718038392 L 428.66890687815,660.2564262915591" fill="none" stroke="#000000" stroke-width="0.07471903413867506"/>
	<path d="M 419.10307790848003,663.177110304768 L 428.7204399993419,660.4373390710236" fill="none" stroke="#000000" stroke-width="0.07471903413867506"/>
	<path d="M 419.15464504256,663.358108165896 L 428.77186993500095,660.6178553731387" fill="none" stroke="#000000" stroke-width="0.07471903413867506"/>
	<path d="M 419.20611,663.538713 L 428.82319707674776,660.7979765737357" fill="none" stroke="#000000" stroke-width="0.07471903413867506"/>
	<path d="M 419.25747317344,663.718926185304 L 428.874421816222,660.9777040487209" fill="none" stroke="#000000" stroke-width="0.07471903413867506"/>
	<path d="M 419.30873495552,663.898749100032 L 428.92554454508326,661.1570391740762" fill="none" stroke="#000000" stroke-width="0.07471903413867506"/>
	<path d="M 419.35989573888,664.0781831224081 L 428.97656565501075,661.3359833258604" fill="none" stroke="#000000" stroke-width="0.07471903413867506"/>
	<path d="M 419.41095591616,664.257229630656 L 429.0274855377039,661.5145378802092" fill="none" stroke="#000000" stroke-width="0.07471903413867506"/>
	<path d="M 419.46191588,664.435890003 L 429.07830458488274,661.6927042133381" fill="none" stroke="#000000" stroke-width="0.07471903413867506"/>
	<path d="M 419.51277602304003,664.614165617664 L 429.129023188288,661.8704837015408" fill="none" stroke="#000000" stroke-width="0.07471903413867506"/>
	<path d="M 419.56353673792,664.7920578528721 L 429.1796417396813,662.0478777211931" fill="none" stroke="#000000" stroke-width="0.07471903413867506"/>
	<path d="M 419.61419841728,664.969568086848 L 429.23016063084606,662.2248876487513" fill="none" stroke="#000000" stroke-width="0.07471903413867506"/>
	<path d="M 419.66476145376,665.146697697816 L 429.280580253587,662.4015148607551" fill="none" stroke="#000000" stroke-width="0.07471903413867506"/>
	<path d="M 419.71522624,665.323448064 L 429.3309009997311,662.5777607338275" fill="none" stroke="#000000" stroke-width="0.07471903413867506"/>
	<path d="M 419.76559316864,665.499820563624 L 429.3811232611276,662.7536266446762" fill="none" stroke="#000000" stroke-width="0.07471903413867506"/>
	<path d="M 419.81586263232003,665.675816574912 L 429.43124742964824,662.9291139700948" fill="none" stroke="#000000" stroke-width="0.07471903413867506"/>
	<path d="M 419.86603502368,665.851437476088 L 429.4812738971878,663.1042240869635" fill="none" stroke="#000000" stroke-width="0.07471903413867506"/>
	<path d="M 419.91611073536,666.026684645376 L 429.5312030556643,663.2789583722504" fill="none" stroke="#000000" stroke-width="0.07471903413867506"/>
	<path d="M 419.96609016,666.201559461 L 429.58103529701947,663.4533182030123" fill="none" stroke="#000000" stroke-width="0.07471903413867506"/>
	<path d="M 420.01597369024,666.376063301184 L 429.63077101321863,663.6273049563956" fill="none" stroke="#000000" stroke-width="0.07471903413867506"/>
	<path d="M 420.06576171872,666.5501975441521 L 429.68041059625153,663.8009200096383" fill="none" stroke="#000000" stroke-width="0.07471903413867506"/>
	<path d="M 420.11545463808,666.723963568128 L 429.7299544381324,663.9741647400695" fill="none" stroke="#000000" stroke-width="0.07471903413867506"/>
	<path d="M 420.16505284096,666.897362751336 L 429.7794029309003,664.1470405251114" fill="none" stroke="#000000" stroke-width="0.07471903413867506"/>
	<path d="M 420.21455672,667.070396472 L 429.82875646661944,664.3195487422805" fill="none" stroke="#000000" stroke-width="0.07471903413867506"/>
	<path d="M 420.26396666784,667.243066108344 L 429.87801543737964,664.4916907691884" fill="none" stroke="#000000" stroke-width="0.07471903413867506"/>
	<path d="M 420.31328307712,667.4153730385921 L 429.92718023529636,664.6634679835423" fill="none" stroke="#000000" stroke-width="0.07471903413867506"/>
	<path d="M 420.36250634048,667.587318640968 L 429.9762512525114,664.8348817631467" fill="none" stroke="#000000" stroke-width="0.07471903413867506"/>
	<path d="M 420.41163685056,667.758904293696 L 430.0252288811929,665.0059334859045" fill="none" stroke="#000000" stroke-width="0.07471903413867506"/>
	<path d="M 420.460675,667.930131375 L 430.0741135135358,665.1766245298176" fill="none" stroke="#000000" stroke-width="0.07471903413867506"/>
	<path d="M 420.50962118144,668.101001263104 L 430.12290554176235,665.3469562729882" fill="none" stroke="#000000" stroke-width="0.07471903413867506"/>
	<path d="M 420.55847578752,668.271515336232 L 430.17160535812206,665.5169300936199" fill="none" stroke="#000000" stroke-width="0.07471903413867506"/>
	<path d="M 420.60723921088,668.441674972608 L 430.2202133548923,665.6865473700184" fill="none" stroke="#000000" stroke-width="0.07471903413867506"/>
	<path d="M 420.65591184416,668.611481550456 L 430.26872992437865,665.8558094805932" fill="none" stroke="#000000" stroke-width="0.07471903413867506"/>
	<path d="M 420.70449408,668.780936448 L 430.317155458915,666.024717803858" fill="none" stroke="#000000" stroke-width="0.07471903413867506"/>
	<path d="M 420.75298631104,668.950041043464 L 430.3654903508642,666.1932737184322" fill="none" stroke="#000000" stroke-width="0.07471903413867506"/>
	<path d="M 420.80138892992,669.118796715072 L 430.41373499261823,666.3614786030417" fill="none" stroke="#000000" stroke-width="0.07471903413867506"/>
	<path d="M 420.84970232928003,669.287204841048 L 430.4618897765984,666.5293338365202" fill="none" stroke="#000000" stroke-width="0.07471903413867506"/>
	<path d="M 420.89792690176,669.455266799616 L 430.5099550952558,666.6968407978096" fill="none" stroke="#000000" stroke-width="0.07471903413867506"/>
	<path d="M 420.94606304,669.6229839690001 L 430.557931341072,666.8640008659623" fill="none" stroke="#000000" stroke-width="0.07471903413867506"/>
	<path d="M 420.99411113664,669.7903577274241 L 430.6058189065586,667.0308154201408" fill="none" stroke="#000000" stroke-width="0.07471903413867506"/>
	<path d="M 421.04207158432,669.957389453112 L 430.6536181842584,667.1972858396197" fill="none" stroke="#000000" stroke-width="0.07471903413867506"/>
	<path d="M 421.08994477568,670.124080524288 L 430.7013295667451,667.3634135037867" fill="none" stroke="#000000" stroke-width="0.07471903413867506"/>
	<path d="M 421.13773110336,670.290432319176 L 430.74895344662394,667.5291997921432" fill="none" stroke="#000000" stroke-width="0.07471903413867506"/>
	<path d="M 421.18543096,670.456446216 L 430.7964902165322,667.6946460843056" fill="none" stroke="#000000" stroke-width="0.07471903413867506"/>
	<path d="M 421.23304473824,670.622123592984 L 430.8439402691391,667.8597537600067" fill="none" stroke="#000000" stroke-width="0.07471903413867506"/>
	<path d="M 421.28057283072,670.787465828352 L 430.89130399714657,668.0245241990957" fill="none" stroke="#000000" stroke-width="0.07471903413867506"/>
	<path d="M 421.32801563008,670.952474300328 L 430.9385817932892,668.1889587815406" fill="none" stroke="#000000" stroke-width="0.07471903413867506"/>
	<path d="M 421.37537352896,671.117150387136 L 430.98577405033484,668.353058887428" fill="none" stroke="#000000" stroke-width="0.07471903413867506"/>
	<path d="M 421.42264692000003,671.281495467 L 431.03288116108513,668.5168258969653" fill="none" stroke="#000000" stroke-width="0.07471903413867506"/>
	<path d="M 421.46983619584,671.445510918144 L 431.07990351837515,668.6802611904807" fill="none" stroke="#000000" stroke-width="0.07471903413867506"/>
	<path d="M 421.51694174912,671.609198118792 L 431.1268415150746,668.8433661484247" fill="none" stroke="#000000" stroke-width="0.07471903413867506"/>
	<path d="M 421.56396397248,671.7725584471681 L 431.17369554408754,669.0061421513714" fill="none" stroke="#000000" stroke-width="0.07471903413867506"/>
	<path d="M 421.61090325856003,671.935593281496 L 431.22046599835295,669.1685905800186" fill="none" stroke="#000000" stroke-width="0.07471903413867506"/>
	<path d="M 421.65776,672.098304 L 431.26715327084514,669.3307128151903" fill="none" stroke="#000000" stroke-width="0.07471903413867506"/>
	<path d="M 421.70453458944,672.2606919809041 L 431.31375775457394,669.4925102378363" fill="none" stroke="#000000" stroke-width="0.07471903413867506"/>
	<path d="M 421.75122741952003,672.422758602432 L 431.3602798425851,669.6539842290337" fill="none" stroke="#000000" stroke-width="0.07471903413867506"/>
	<path d="M 421.79783888288,672.5845052428081 L 431.40671992796064,669.8151361699884" fill="none" stroke="#000000" stroke-width="0.07471903413867506"/>
	<path d="M 421.84436937216003,672.745933280256 L 431.4530784038193,669.9759674420353" fill="none" stroke="#000000" stroke-width="0.07471903413867506"/>
	<path d="M 421.89081928,672.9070440930001 L 431.4993556633165,670.13647942664" fill="none" stroke="#000000" stroke-width="0.07471903413867506"/>
	<path d="M 421.93718899904,673.0678390592641 L 431.5455520996453,670.2966735053993" fill="none" stroke="#000000" stroke-width="0.07471903413867506"/>
	<path d="M 421.98347892192,673.228319557272 L 431.591668106036,670.4565510600422" fill="none" stroke="#000000" stroke-width="0.07471903413867506"/>
	<path d="M 422.02968944128,673.388486965248 L 431.6377040757573,670.6161134724317" fill="none" stroke="#000000" stroke-width="0.07471903413867506"/>
	<path d="M 422.07582094976,673.5483426614161 L 431.68366040211566,670.7753621245644" fill="none" stroke="#000000" stroke-width="0.07471903413867506"/>
	<path d="M 422.12187384000003,673.707888024 L 431.7295374784566,670.9342983985725" fill="none" stroke="#000000" stroke-width="0.07471903413867506"/>
	<path d="M 422.16784850464,673.867124431224 L 431.7753356981644,671.0929236767247" fill="none" stroke="#000000" stroke-width="0.07471903413867506"/>
	<path d="M 422.21374533632,674.0260532613121 L 431.8210554546627,671.2512393414265" fill="none" stroke="#000000" stroke-width="0.07471903413867506"/>
	<path d="M 422.25956472768,674.184675892488 L 431.8666971414147,671.409246775222" fill="none" stroke="#000000" stroke-width="0.07471903413867506"/>
	<path d="M 422.30530707136,674.3429937029761 L 431.91226115192364,671.5669473607942" fill="none" stroke="#000000" stroke-width="0.07471903413867506"/>
	<path d="M 422.35097276,674.501008071 L 431.957747879733,671.724342480966" fill="none" stroke="#000000" stroke-width="0.07471903413867506"/>
	<path d="M 422.39656218624003,674.658720374784 L 432.00315771842696,671.8814335187019" fill="none" stroke="#000000" stroke-width="0.07471903413867506"/>
	<path d="M 422.44207574272,674.8161319925521 L 432.0484910616304,672.0382218571077" fill="none" stroke="#000000" stroke-width="0.07471903413867506"/>
	<path d="M 422.48751382208,674.9732443025281 L 432.09374830300965,672.1947088794323" fill="none" stroke="#000000" stroke-width="0.07471903413867506"/>
	<path d="M 422.53287681696,675.130058682936 L 432.1389298362727,672.3508959690682" fill="none" stroke="#000000" stroke-width="0.07471903413867506"/>
	<path d="M 422.57816512,675.286576512 L 432.1840360551693,672.5067845095529" fill="none" stroke="#000000" stroke-width="0.07471903413867506"/>
	<path d="M 422.62337912384,675.442799167944 L 432.22906735349153,672.6623758845691" fill="none" stroke="#000000" stroke-width="0.07471903413867506"/>
	<path d="M 422.66851922112,675.598728028992 L 432.274024125074,672.817671477946" fill="none" stroke="#000000" stroke-width="0.07471903413867506"/>
	<path d="M 422.71358580448003,675.754364473368 L 432.3189067637941,672.97267267366" fill="none" stroke="#000000" stroke-width="0.07471903413867506"/>
	<path d="M 422.75857926656,675.9097098792961 L 432.3637156635723,673.1273808558359" fill="none" stroke="#000000" stroke-width="0.07471903413867506"/>
	<path d="M 422.8035,676.0647656250001 L 432.408451218373,673.281797408747" fill="none" stroke="#000000" stroke-width="0.07471903413867506"/>
	<path d="M 422.84834839744,676.219533088704 L 432.45311382220405,673.4359237168168" fill="none" stroke="#000000" stroke-width="0.07471903413867506"/>
	<path d="M 422.89312485152,676.3740136486321 L 432.4977038691173,673.5897611646196" fill="none" stroke="#000000" stroke-width="0.07471903413867506"/>
	<path d="M 422.93782975488,676.5282086830081 L 432.54222175320945,673.7433111368808" fill="none" stroke="#000000" stroke-width="0.07471903413867506"/>
	<path d="M 422.98246350016,676.682119570056 L 432.5866678686215,673.8965750184781" fill="none" stroke="#000000" stroke-width="0.07471903413867506"/>
	<path d="M 423.02702648,676.8357476880001 L 432.6310426095397,674.0495541944426" fill="none" stroke="#000000" stroke-width="0.07471903413867506"/>
	<path d="M 423.07151908704003,676.9890944150641 L 432.6753463701955,674.2022500499589" fill="none" stroke="#000000" stroke-width="0.07471903413867506"/>
	<path d="M 423.11594171392,677.142161129472 L 432.719579544866,674.3546639703662" fill="none" stroke="#000000" stroke-width="0.07471903413867506"/>
	<path d="M 423.16029475328,677.2949492094481 L 432.7637425278743,674.5067973411597" fill="none" stroke="#000000" stroke-width="0.07471903413867506"/>
	<path d="M 423.20457859776,677.4474600332161 L 432.8078357135895,674.6586515479897" fill="none" stroke="#000000" stroke-width="0.07471903413867506"/>
	<path d="M 423.24879364000003,677.5996949790001 L 432.8518594964273,674.8102279766642" fill="none" stroke="#000000" stroke-width="0.07471903413867506"/>
	<path d="M 423.29294027264,677.7516554250241 L 432.8958142708501,674.9615280131484" fill="none" stroke="#000000" stroke-width="0.07471903413867506"/>
	<path d="M 423.33701888832,677.903342749512 L 432.9397004313675,675.1125530435659" fill="none" stroke="#000000" stroke-width="0.07471903413867506"/>
	<path d="M 423.38102987968,678.0547583306881 L 432.98351837253614,675.2633044541991" fill="none" stroke="#000000" stroke-width="0.07471903413867506"/>
	<path d="M 423.42497363936,678.2059035467761 L 433.02726848896054,675.4137836314903" fill="none" stroke="#000000" stroke-width="0.07471903413867506"/>
	<path d="M 423.46885056,678.356779776 L 433.0709511752928,675.5639919620419" fill="none" stroke="#000000" stroke-width="0.07471903413867506"/>
	<path d="M 423.51266103424,678.507388396584 L 433.1145668262334,675.713930832617" fill="none" stroke="#000000" stroke-width="0.07471903413867506"/>
	<path d="M 423.55640545472,678.657730786752 L 433.158115836531,675.8636016301411" fill="none" stroke="#000000" stroke-width="0.07471903413867506"/>
	<path d="M 423.60008421408,678.8078083247281 L 433.20159860098306,676.0130057417011" fill="none" stroke="#000000" stroke-width="0.07471903413867506"/>
	<path d="M 423.64369770496,678.957622388736 L 433.2450155144358,676.1621445545469" fill="none" stroke="#000000" stroke-width="0.07471903413867506"/>
	<path d="M 423.68724632,679.1071743570001 L 433.28836697178474,676.3110194560919" fill="none" stroke="#000000" stroke-width="0.07471903413867506"/>
	<path d="M 423.73073045184003,679.2564656077441 L 433.3316533679747,676.4596318339134" fill="none" stroke="#000000" stroke-width="0.07471903413867506"/>
	<path d="M 423.77415049312003,679.4054975191921 L 433.37487509800013,676.6079830757529" fill="none" stroke="#000000" stroke-width="0.07471903413867506"/>
	<path d="M 423.81750683648,679.554271469568 L 433.4180325569053,676.7560745695175" fill="none" stroke="#000000" stroke-width="0.07471903413867506"/>
	<path d="M 423.86079987456003,679.702788837096 L 433.4611261397848,676.9039077032794" fill="none" stroke="#000000" stroke-width="0.07471903413867506"/>
	<path d="M 423.90403000000003,679.8510510000001 L 433.50415624178345,677.051483865277" fill="none" stroke="#000000" stroke-width="0.07471903413867506"/>
	<path d="M 423.94719760544,679.999059336504 L 433.5471232580964,677.1988044439149" fill="none" stroke="#000000" stroke-width="0.07471903413867506"/>
	<path d="M 423.99030308352,680.146815224832 L 433.59002758396997,677.3458708277651" fill="none" stroke="#000000" stroke-width="0.07471903413867506"/>
	<path d="M 424.03334682688,680.294320043208 L 433.63286961470124,677.4926844055669" fill="none" stroke="#000000" stroke-width="0.07471903413867506"/>
	<path d="M 424.07632922816003,680.441575169856 L 433.67564974563857,677.6392465662274" fill="none" stroke="#000000" stroke-width="0.07471903413867506"/>
	<path d="M 424.11925068,680.588581983 L 433.7183683721816,677.7855586988217" fill="none" stroke="#000000" stroke-width="0.07471903413867506"/>
	<path d="M 424.16211157504,680.7353418608641 L 433.76102588978176,677.9316221925939" fill="none" stroke="#000000" stroke-width="0.07471903413867506"/>
	<path d="M 424.20491230592,680.8818561816721 L 433.8036226939422,678.0774384369568" fill="none" stroke="#000000" stroke-width="0.07471903413867506"/>
	<path d="M 424.24765326528,681.028126323648 L 433.8461591802181,678.2230088214926" fill="none" stroke="#000000" stroke-width="0.07471903413867506"/>
	<path d="M 424.29033484576,681.1741536650161 L 433.8886357442167,678.3683347359535" fill="none" stroke="#000000" stroke-width="0.07471903413867506"/>
	<path d="M 424.33295744000003,681.319939584 L 433.93105278159766,678.513417570261" fill="none" stroke="#000000" stroke-width="0.07471903413867506"/>
	<path d="M 424.37552144064,681.4654854588241 L 433.97341068807316,678.6582587145075" fill="none" stroke="#000000" stroke-width="0.07471903413867506"/>
	<path d="M 424.41802724032,681.6107926677121 L 434.01570985940816,678.8028595589552" fill="none" stroke="#000000" stroke-width="0.07471903413867506"/>
	<path d="M 424.46047523168,681.755862588888 L 434.05795069142033,678.9472214940378" fill="none" stroke="#000000" stroke-width="0.07471903413867506"/>
	<path d="M 424.50286580736,681.9006966005761 L 434.1001335799805,679.0913459103595" fill="none" stroke="#000000" stroke-width="0.07471903413867506"/>
	<path d="M 424.54519936,682.0452960810001 L 434.14225892101234,679.2352341986954" fill="none" stroke="#000000" stroke-width="0.07471903413867506"/>
	<path d="M 424.58747628224,682.189662408384 L 434.18432711049314,679.3788877499924" fill="none" stroke="#000000" stroke-width="0.07471903413867506"/>
	<path d="M 424.62969696672,682.3337969609521 L 434.2263385444536,679.5223079553688" fill="none" stroke="#000000" stroke-width="0.07471903413867506"/>
	<path d="M 424.67186180608,682.4777011169281 L 434.2682936189777,679.6654962061142" fill="none" stroke="#000000" stroke-width="0.07471903413867506"/>
	<path d="M 424.71397119296,682.621376254536 L 434.3101927302033,679.8084538936901" fill="none" stroke="#000000" stroke-width="0.07471903413867506"/>
	<path d="M 424.75602552,682.7648237520001 L 434.35203627432213,679.9511824097297" fill="none" stroke="#000000" stroke-width="0.07471903413867506"/>
	<path d="M 424.79802517984,682.908044987544 L 434.3938246475797,680.0936831460378" fill="none" stroke="#000000" stroke-width="0.07471903413867506"/>
	<path d="M 424.83997056512,683.0510413393921 L 434.43555824627555,680.2359574945918" fill="none" stroke="#000000" stroke-width="0.07471903413867506"/>
	<path d="M 424.88186206848,683.193814185768 L 434.4772374667633,680.3780068475398" fill="none" stroke="#000000" stroke-width="0.07471903413867506"/>
	<path d="M 424.92370008256,683.3363649048961 L 434.5188627054508,680.5198325972028" fill="none" stroke="#000000" stroke-width="0.07471903413867506"/>
	<path d="M 424.965485,683.4786948750001 L 434.5604343588001,680.6614361360729" fill="none" stroke="#000000" stroke-width="0.07471903413867506"/>
	<path d="M 425.00721721344,683.6208054743041 L 434.60195282332774,680.8028188568142" fill="none" stroke="#000000" stroke-width="0.07471903413867506"/>
	<path d="M 425.04889711552,683.7626980810321 L 434.6434184956045,680.9439821522623" fill="none" stroke="#000000" stroke-width="0.07471903413867506"/>
	<path d="M 425.09052509888,683.9043740734081 L 434.6848317722558,681.0849274154243" fill="none" stroke="#000000" stroke-width="0.07471903413867506"/>
	<path d="M 425.13210155616,684.0458348296561 L 434.72619304996147,681.2256560394787" fill="none" stroke="#000000" stroke-width="0.07471903413867506"/>
	<path d="M 425.17362688000003,684.1870817280001 L 434.7675027254559,681.3661694177753" fill="none" stroke="#000000" stroke-width="0.07471903413867506"/>
	<path d="M 425.21510146304,684.3281161466641 L 434.8087611955282,681.5064689438346" fill="none" stroke="#000000" stroke-width="0.07471903413867506"/>
	<path d="M 425.25652569792,684.4689394638721 L 434.84996885702185,681.6465560113479" fill="none" stroke="#000000" stroke-width="0.07471903413867506"/>
	<path d="M 425.29789997728,684.6095530578481 L 434.8911261068353,681.7864320141773" fill="none" stroke="#000000" stroke-width="0.07471903413867506"/>
	<path d="M 425.33922469376,684.7499583068161 L 434.9322333419215,681.9260983463546" fill="none" stroke="#000000" stroke-width="0.07471903413867506"/>
	<path d="M 425.38050024,684.8901565890001 L 434.97329095928814,682.0655564020817" fill="none" stroke="#000000" stroke-width="0.07471903413867506"/>
	<path d="M 425.42172700864,685.030149282624 L 435.0142993559974,682.2048075757302" fill="none" stroke="#000000" stroke-width="0.07471903413867506"/>
	<path d="M 425.46290539232,685.1699377659121 L 435.0552589291663,682.3438532618409" fill="none" stroke="#000000" stroke-width="0.07471903413867506"/>
	<path d="M 425.50403578368,685.309523417088 L 435.0961700759665,682.4826948551229" fill="none" stroke="#000000" stroke-width="0.07471903413867506"/>
	<path d="M 425.54511857536,685.448907614376 L 435.137033193624,682.6213337504543" fill="none" stroke="#000000" stroke-width="0.07471903413867506"/>
	<path d="M 425.58615416000004,685.588091736 L 435.17784867941975,682.7597713428809" fill="none" stroke="#000000" stroke-width="0.07471903413867506"/>
	<path d="M 425.62714293024,685.7270771601841 L 435.2186169306888,682.8980090276157" fill="none" stroke="#000000" stroke-width="0.07471903413867506"/>
	<path d="M 425.66808527872,685.8658652651521 L 435.2593383448211,683.0360482000389" fill="none" stroke="#000000" stroke-width="0.07471903413867506"/>
	<path d="M 425.70898159808,686.004457429128 L 435.3000133192607,683.1738902556968" fill="none" stroke="#000000" stroke-width="0.07471903413867506"/>
	<path d="M 425.74983228096,686.142855030336 L 435.340642251506,683.3115365903021" fill="none" stroke="#000000" stroke-width="0.07471903413867506"/>
	<path d="M 425.79063772,686.2810594470001 L 435.3812255391097,683.4489885997322" fill="none" stroke="#000000" stroke-width="0.07471903413867506"/>
	<path d="M 425.83139830784,686.4190720573441 L 435.4217635796787,683.5862476800291" fill="none" stroke="#000000" stroke-width="0.07471903413867506"/>
	<path d="M 425.87211443712,686.5568942395921 L 435.46225677087386,683.723315227399" fill="none" stroke="#000000" stroke-width="0.07471903413867506"/>
	<path d="M 425.91278650048,686.6945273719681 L 435.5027055104101,683.8601926382112" fill="none" stroke="#000000" stroke-width="0.07471903413867506"/>
	<path d="M 425.95341489056,686.8319728326961 L 435.5431101960561,683.9968813089977" fill="none" stroke="#000000" stroke-width="0.07471903413867506"/>
	<path d="M 425.994,686.969232 L 435.5834712256341,684.133382636452" fill="none" stroke="#000000" stroke-width="0.07471903413867506"/>
	<path d="M 426.03454222144,687.1063062521041 L 435.6237889970201,684.2696980174289" fill="none" stroke="#000000" stroke-width="0.07471903413867506"/>
	<path d="M 426.07504194752,687.243196967232 L 435.6640639081435,684.4058288489434" fill="none" stroke="#000000" stroke-width="0.07471903413867506"/>
	<path d="M 426.11549957088,687.379905523608 L 435.7042963569868,684.5417765281696" fill="none" stroke="#000000" stroke-width="0.07471903413867506"/>
	<path d="M 426.15591548416,687.5164332994561 L 435.7444867415858,684.6775424524407" fill="none" stroke="#000000" stroke-width="0.07471903413867506"/>
	<path d="M 426.19629008,687.652781673 L 435.784635460029,684.8131280192464" fill="none" stroke="#000000" stroke-width="0.07471903413867506"/>
	<path d="M 426.23662375104,687.7889520224641 L 435.8247429104578,684.9485346262342" fill="none" stroke="#000000" stroke-width="0.07471903413867506"/>
	<path d="M 426.27691688992,687.9249457260721 L 435.8648094910661,685.083763671207" fill="none" stroke="#000000" stroke-width="0.07471903413867506"/>
	<path d="M 426.31716988928,688.0607641620481 L 435.90483560010006,685.2188165521219" fill="none" stroke="#000000" stroke-width="0.07471903413867506"/>
	<path d="M 426.35738314176,688.1964087086161 L 435.94482163585803,685.3536946670904" fill="none" stroke="#000000" stroke-width="0.07471903413867506"/>
	<path d="M 426.39755704,688.331880744 L 435.98476799669015,685.4883994143762" fill="none" stroke="#000000" stroke-width="0.07471903413867506"/>
	<path d="M 426.43769197664,688.4671816464241 L 436.0246750809984,685.6229321923948" fill="none" stroke="#000000" stroke-width="0.07471903413867506"/>
	<path d="M 426.47778834432,688.6023127941121 L 436.064543287236,685.757294399712" fill="none" stroke="#000000" stroke-width="0.07471903413867506"/>
	<path d="M 426.51784653568,688.7372755652881 L 436.10437301390743,685.8914874350429" fill="none" stroke="#000000" stroke-width="0.07471903413867506"/>
	<path d="M 426.55786694336,688.872071338176 L 436.14416465956793,686.0255126972507" fill="none" stroke="#000000" stroke-width="0.07471903413867506"/>
	<path d="M 426.59784996,689.0067014910001 L 436.1839186228235,686.1593715853458" fill="none" stroke="#000000" stroke-width="0.07471903413867506"/>
	<path d="M 426.63779597824,689.1411674019841 L 436.2236353023304,686.2930654984839" fill="none" stroke="#000000" stroke-width="0.07471903413867506"/>
	<path d="M 426.67770539072,689.275470449352 L 436.263315096795,686.426595835965" fill="none" stroke="#000000" stroke-width="0.07471903413867506"/>
	<path d="M 426.71757859008,689.4096120113281 L 436.30295840497325,686.5599639972329" fill="none" stroke="#000000" stroke-width="0.07471903413867506"/>
	<path d="M 426.75741596896,689.5435934661361 L 436.34256562567066,686.6931713818722" fill="none" stroke="#000000" stroke-width="0.07471903413867506"/>
	<path d="M 426.79721792,689.6774161920001 L 436.38213715774174,686.8262193896085" fill="none" stroke="#000000" stroke-width="0.07471903413867506"/>
	<path d="M 426.83698483584,689.8110815671441 L 436.4216734000898,686.9591094203063" fill="none" stroke="#000000" stroke-width="0.07471903413867506"/>
	<path d="M 426.87671710912,689.9445909697921 L 436.46117475166653,687.0918428739674" fill="none" stroke="#000000" stroke-width="0.07471903413867506"/>
	<path d="M 426.91641513248,690.0779457781681 L 436.5006416114717,687.2244211507301" fill="none" stroke="#000000" stroke-width="0.07471903413867506"/>
	<path d="M 426.95607929856,690.2111473704961 L 436.5400743785526,687.3568456508671" fill="none" stroke="#000000" stroke-width="0.07471903413867506"/>
	<path d="M 426.99571000000003,690.344197125 L 436.57947345200415,687.4891177747841" fill="none" stroke="#000000" stroke-width="0.07471903413867506"/>
	<path d="M 427.03530762944,690.4770964199041 L 436.6188392309678,687.6212389230184" fill="none" stroke="#000000" stroke-width="0.07471903413867506"/>
	<path d="M 427.07487257952,690.6098466334321 L 436.6581721146317,687.7532104962372" fill="none" stroke="#000000" stroke-width="0.07471903413867506"/>
	<path d="M 427.11440524288,690.7424491438081 L 436.69747250223026,687.8850338952365" fill="none" stroke="#000000" stroke-width="0.07471903413867506"/>
	<path d="M 427.15390601216,690.8749053292561 L 436.73674079304317,688.0167105209381" fill="none" stroke="#000000" stroke-width="0.07471903413867506"/>
	<path d="M 427.19337528,691.0072165680001 L 436.7759773863957,688.1482417743896" fill="none" stroke="#000000" stroke-width="0.07471903413867506"/>
	<path d="M 427.23281343904,691.1393842382641 L 436.8151826816579,688.2796290567617" fill="none" stroke="#000000" stroke-width="0.07471903413867506"/>
	<path d="M 427.27222088192,691.2714097182721 L 436.85435707824405,688.4108737693464" fill="none" stroke="#000000" stroke-width="0.07471903413867506"/>
	<path d="M 427.31159800128,691.4032943862481 L 436.89350097561237,688.5419773135558" fill="none" stroke="#000000" stroke-width="0.07471903413867506"/>
	<path d="M 427.35094518976,691.5350396204161 L 436.93261477326456,688.67294109092" fill="none" stroke="#000000" stroke-width="0.07471903413867506"/>
	<path d="M 427.39026284,691.6666467990001 L 436.9716988707452,688.8037665030852" fill="none" stroke="#000000" stroke-width="0.07471903413867506"/>
	<path d="M 427.42955134464,691.7981173002241 L 437.0107536676414,688.9344549518121" fill="none" stroke="#000000" stroke-width="0.07471903413867506"/>
	<path d="M 427.46881109632,691.9294525023121 L 437.0497795635821,689.0650078389735" fill="none" stroke="#000000" stroke-width="0.07471903413867506"/>
	<path d="M 427.50804248768003,692.0606537834881 L 437.0887769582379,689.1954265665532" fill="none" stroke="#000000" stroke-width="0.07471903413867506"/>
	<path d="M 427.54724591136,692.1917225219761 L 437.12774625131993,689.3257125366433" fill="none" stroke="#000000" stroke-width="0.07471903413867506"/>
	<path d="M 427.58642176,692.3226600960002 L 437.1666878425802,689.4558671514428" fill="none" stroke="#000000" stroke-width="0.07471903413867506"/>
	<path d="M 427.62557042624,692.4534678837841 L 437.20560213181005,689.5858918132548" fill="none" stroke="#000000" stroke-width="0.07471903413867506"/>
	<path d="M 427.66469230272,692.5841472635522 L 437.2444895188405,689.7157879244857" fill="none" stroke="#000000" stroke-width="0.07471903413867506"/>
	<path d="M 427.70378778208,692.7146996135281 L 437.283350403541,689.8455568876418" fill="none" stroke="#000000" stroke-width="0.07471903413867506"/>
	<path d="M 427.74285725696,692.8451263119362 L 437.3221851858195,689.9752001053286" fill="none" stroke="#000000" stroke-width="0.07471903413867506"/>
	<path d="M 427.78190112,692.9754287370001 L 437.360994265621,690.1047189802473" fill="none" stroke="#000000" stroke-width="0.07471903413867506"/>
	<path d="M 427.82091976384,693.1056082669442 L 437.399778042928,690.2341149151938" fill="none" stroke="#000000" stroke-width="0.07471903413867506"/>
	<path d="M 427.85991358112,693.2356662799921 L 437.43853691775905,690.3633893130556" fill="none" stroke="#000000" stroke-width="0.07471903413867506"/>
	<path d="M 427.89888296448,693.3656041543682 L 437.47727129016846,690.4925435768107" fill="none" stroke="#000000" stroke-width="0.07471903413867506"/>
	<path d="M 427.93782830656,693.4954232682961 L 437.51598156024585,690.6215791095243" fill="none" stroke="#000000" stroke-width="0.07471903413867506"/>
	<path d="M 427.97675,693.6251250000001 L 437.55466812811517,690.7504973143471" fill="none" stroke="#000000" stroke-width="0.07471903413867506"/>
	<path d="M 428.01564843744,693.7547107277042 L 437.5933313939343,690.8792995945131" fill="none" stroke="#000000" stroke-width="0.07471903413867506"/>
	<path d="M 428.05452401152,693.8841818296321 L 437.6319717578943,691.0079873533371" fill="none" stroke="#000000" stroke-width="0.07471903413867506"/>
	<path d="M 428.09337711488,694.0135396840082 L 437.67058962021883,691.1365619942125" fill="none" stroke="#000000" stroke-width="0.07471903413867506"/>
	<path d="M 428.13220814016,694.1427856690561 L 437.7091853811633,691.2650249206088" fill="none" stroke="#000000" stroke-width="0.07471903413867506"/>
	<path d="M 428.17101748,694.2719211630001 L 437.7477594410145,691.3933775360695" fill="none" stroke="#000000" stroke-width="0.07471903413867506"/>
	<path d="M 428.20980552704,694.4009475440641 L 437.78631220008964,691.5216212442094" fill="none" stroke="#000000" stroke-width="0.07471903413867506"/>
	<path d="M 428.24857267392,694.5298661904721 L 437.8248440587357,691.6497574487126" fill="none" stroke="#000000" stroke-width="0.07471903413867506"/>
	<path d="M 428.28731931328,694.6586784804481 L 437.8633554173288,691.7777875533296" fill="none" stroke="#000000" stroke-width="0.07471903413867506"/>
	<path d="M 428.32604583776,694.7873857922161 L 437.90184667627346,691.9057129618752" fill="none" stroke="#000000" stroke-width="0.07471903413867506"/>
	<path d="M 428.36475264,694.9159895040001 L 437.9403182360019,692.0335350782259" fill="none" stroke="#000000" stroke-width="0.07471903413867506"/>
	<path d="M 428.40344011264,695.0444909940242 L 437.97877049697314,692.1612553063173" fill="none" stroke="#000000" stroke-width="0.07471903413867506"/>
	<path d="M 428.44210864832,695.1728916405121 L 438.01720385967263,692.2888750501418" fill="none" stroke="#000000" stroke-width="0.07471903413867506"/>
	<path d="M 428.48075863968,695.3011928216881 L 438.0556187246111,692.4163957137456" fill="none" stroke="#000000" stroke-width="0.07471903413867506"/>
	<path d="M 428.51939047936,695.4293959157761 L 438.094015492324,692.5438187012271" fill="none" stroke="#000000" stroke-width="0.07471903413867506"/>
	<path d="M 428.55800456000003,695.5575023010001 L 438.1323945633707,692.6711454167331" fill="none" stroke="#000000" stroke-width="0.07471903413867506"/>
	<path d="M 428.59660127424,695.6855133555841 L 438.1707563383338,692.7983772644571" fill="none" stroke="#000000" stroke-width="0.07471903413867506"/>
	<path d="M 428.63518101472,695.8134304577521 L 438.2091012178181,692.9255156486364" fill="none" stroke="#000000" stroke-width="0.07471903413867506"/>
	<path d="M 428.67374417408,695.9412549857282 L 438.24742960245027,693.0525619735494" fill="none" stroke="#000000" stroke-width="0.07471903413867506"/>
	<path d="M 428.71229114496,696.0689883177362 L 438.28574189287747,693.1795176435127" fill="none" stroke="#000000" stroke-width="0.07471903413867506"/>
	<path d="M 428.75082232,696.1966318320001 L 438.32403848976713,693.306384062879" fill="none" stroke="#000000" stroke-width="0.07471903413867506"/>
	<path d="M 428.78933809184,696.3241869067441 L 438.36231979380557,693.4331626360344" fill="none" stroke="#000000" stroke-width="0.07471903413867506"/>
	<path d="M 428.82783885312,696.4516549201921 L 438.40058620569766,693.559854767395" fill="none" stroke="#000000" stroke-width="0.07471903413867506"/>
	<path d="M 428.86632499648,696.5790372505681 L 438.4388381261657,693.6864618614046" fill="none" stroke="#000000" stroke-width="0.07471903413867506"/>
	<path d="M 428.90479691456,696.7063352760962 L 438.47707595594886,693.8129853225324" fill="none" stroke="#000000" stroke-width="0.07471903413867506"/>
	<path d="M 428.943255,696.8335503750002 L 438.515300095802,693.9394265552694" fill="none" stroke="#000000" stroke-width="0.07471903413867506"/>
	<path d="M 428.98169964544,696.9606839255041 L 438.553510946495,694.0657869641261" fill="none" stroke="#000000" stroke-width="0.07471903413867506"/>
	<path d="M 429.02013124352,697.0877373058322 L 438.59170890881205,694.1920679536303" fill="none" stroke="#000000" stroke-width="0.07471903413867506"/>
	<path d="M 429.05855018688,697.2147118942081 L 438.6298943835506,694.3182709283226" fill="none" stroke="#000000" stroke-width="0.07471903413867506"/>
	<path d="M 429.09695686816,697.3416090688562 L 438.6680677715205,694.444397292756" fill="none" stroke="#000000" stroke-width="0.07471903413867506"/>
	<path d="M 429.13535168,697.4684302080002 L 438.70622947354315,694.5704484514906" fill="none" stroke="#000000" stroke-width="0.07471903413867506"/>
	<path d="M 429.17373501504,697.5951766898642 L 438.74437989045083,694.6964258090928" fill="none" stroke="#000000" stroke-width="0.07471903413867506"/>
	<path d="M 429.21210726592,697.7218498926721 L 438.78251942308543,694.8223307701313" fill="none" stroke="#000000" stroke-width="0.07471903413867506"/>
	<path d="M 429.25046882528,697.8484511946482 L 438.820648472298,694.9481647391747" fill="none" stroke="#000000" stroke-width="0.07471903413867506"/>
	<path d="M 429.28882008576,697.9749819740161 L 438.8587674389474,695.0739291207883" fill="none" stroke="#000000" stroke-width="0.07471903413867506"/>
	<path d="M 429.32716144,698.1014436090002 L 438.8968767238999,695.1996253195318" fill="none" stroke="#000000" stroke-width="0.07471903413867506"/>
	<path d="M 429.36549328064,698.2278374778241 L 438.9349767280279,695.325254739956" fill="none" stroke="#000000" stroke-width="0.07471903413867506"/>
	<path d="M 429.40381600032,698.3541649587122 L 438.97306785220906,695.4508187866002" fill="none" stroke="#000000" stroke-width="0.07471903413867506"/>
	<path d="M 429.44212999168,698.4804274298881 L 439.01115049732573,695.5763188639884" fill="none" stroke="#000000" stroke-width="0.07471903413867506"/>
	<path d="M 429.48043564735997,698.6066262695762 L 439.0492250642635,695.7017563766284" fill="none" stroke="#000000" stroke-width="0.07471903413867506"/>
	<path d="M 429.51873336,698.7327628560001 L 439.087291953911,695.8271327290066" fill="none" stroke="#000000" stroke-width="0.07471903413867506"/>
	<path d="M 429.55702352224,698.8588385673842 L 439.125351567158,695.9524493255868" fill="none" stroke="#000000" stroke-width="0.07471903413867506"/>
	<path d="M 429.59530652672,698.9848547819522 L 439.16340430489555,696.0777075708065" fill="none" stroke="#000000" stroke-width="0.07471903413867506"/>
	<path d="M 429.63358276608,699.1108128779282 L 439.2014505680142,696.2029088690739" fill="none" stroke="#000000" stroke-width="0.07471903413867506"/>
	<path d="M 429.67185263296,699.2367142335362 L 439.2394907574036,696.3280546247656" fill="none" stroke="#000000" stroke-width="0.07471903413867506"/>
	<path d="M 429.71011652,699.3625602270001 L 439.2775252739513,696.4531462422232" fill="none" stroke="#000000" stroke-width="0.07471903413867506"/>
	<path d="M 429.74837481984,699.4883522365442 L 439.31555451854206,696.5781851257507" fill="none" stroke="#000000" stroke-width="0.07471903413867506"/>
	<path d="M 429.78662792512,699.6140916403922 L 439.35357889205636,696.703172679611" fill="none" stroke="#000000" stroke-width="0.07471903413867506"/>
	<path d="M 429.82487622848,699.7397798167682 L 439.3915987953703,696.828110308024" fill="none" stroke="#000000" stroke-width="0.07471903413867506"/>
	<path d="M 429.86312012256,699.8654181438961 L 439.4296146293541,696.9529994151624" fill="none" stroke="#000000" stroke-width="0.07471903413867506"/>
	<path d="M 429.90136,699.9910080000002 L 439.4676267948709,697.0778414051501" fill="none" stroke="#000000" stroke-width="0.07471903413867506"/>
	<path d="M 429.93959625344,700.1165507633042 L 439.50563569277665,697.2026376820583" fill="none" stroke="#000000" stroke-width="0.07471903413867506"/>
	<path d="M 429.97782927552,700.2420478120322 L 439.54364172391837,697.327389649903" fill="none" stroke="#000000" stroke-width="0.07471903413867506"/>
	<path d="M 430.01605945888,700.3675005244081 L 439.5816452891338,697.4520987126422" fill="none" stroke="#000000" stroke-width="0.07471903413867506"/>
	<path d="M 430.05428719616,700.4929102786562 L 439.61964678924977,697.5767662741727" fill="none" stroke="#000000" stroke-width="0.07471903413867506"/>
	<path d="M 430.09251288,700.6182784530001 L 439.6576466250821,697.7013937383274" fill="none" stroke="#000000" stroke-width="0.07471903413867506"/>
	<path d="M 430.13073690304,700.7436064256642 L 439.69564519743386,697.8259825088725" fill="none" stroke="#000000" stroke-width="0.07471903413867506"/>
	<path d="M 430.16895965791997,700.8688955748722 L 439.7336429070949,697.950533989504" fill="none" stroke="#000000" stroke-width="0.07471903413867506"/>
	<path d="M 430.20718153728,700.9941472788482 L 439.7716401548408,698.0750495838461" fill="none" stroke="#000000" stroke-width="0.07471903413867506"/>
	<path d="M 430.24540293376,701.1193629158162 L 439.8096373414317,698.1995306954466" fill="none" stroke="#000000" stroke-width="0.07471903413867506"/>
	<path d="M 430.28362424,701.2445438640002 L 439.84763486761176,698.3239787277757" fill="none" stroke="#000000" stroke-width="0.07471903413867506"/>
	<path d="M 430.32184584864,701.3696915016242 L 439.8856331341077,698.4483950842222" fill="none" stroke="#000000" stroke-width="0.07471903413867506"/>
	<path d="M 430.36006815231997,701.4948072069122 L 439.92363254162836,698.5727811680905" fill="none" stroke="#000000" stroke-width="0.07471903413867506"/>
	<path d="M 430.39829154368,701.6198923580882 L 439.9616334908635,698.6971383825986" fill="none" stroke="#000000" stroke-width="0.07471903413867506"/>
	<path d="M 430.43651641536,701.7449483333762 L 439.9996363824827,698.8214681308745" fill="none" stroke="#000000" stroke-width="0.07471903413867506"/>
	<path d="M 430.47474316,701.8699765110002 L 440.0376416171347,698.9457718159539" fill="none" stroke="#000000" stroke-width="0.07471903413867506"/>
	<path d="M 430.51297217024,701.9949782691842 L 440.0756495954463,699.0700508407768" fill="none" stroke="#000000" stroke-width="0.07471903413867506"/>
	<path d="M 430.55120383871997,702.1199549861522 L 440.11366071802155,699.1943066081856" fill="none" stroke="#000000" stroke-width="0.07471903413867506"/>
	<path d="M 430.58943855808,702.2449080401282 L 440.1516753854407,699.3185405209215" fill="none" stroke="#000000" stroke-width="0.07471903413867506"/>
	<path d="M 430.62767672096,702.3698388093362 L 440.18969399825903,699.4427539816221" fill="none" stroke="#000000" stroke-width="0.07471903413867506"/>
	<path d="M 430.66591872,702.4947486720002 L 440.22771695700663,699.5669483928185" fill="none" stroke="#000000" stroke-width="0.07471903413867506"/>
	<path d="M 430.70416494784,702.6196390063442 L 440.2657446621867,699.6911251569328" fill="none" stroke="#000000" stroke-width="0.07471903413867506"/>
	<path d="M 430.74241579712,702.7445111905922 L 440.3037775142748,699.8152856762753" fill="none" stroke="#000000" stroke-width="0.07471903413867506"/>
	<path d="M 430.78067166048,702.8693666029682 L 440.3418159137185,699.9394313530414" fill="none" stroke="#000000" stroke-width="0.07471903413867506"/>
	<path d="M 430.81893293056,702.9942066216962 L 440.3798602609357,700.0635635893098" fill="none" stroke="#000000" stroke-width="0.07471903413867506"/>
	<path d="M 430.8572,703.1190326250002 L 440.41791095631396,700.1876837870387" fill="none" stroke="#000000" stroke-width="0.07471903413867506"/>
	<path d="M 430.89547326144,703.2438459911042 L 440.4559684002099,700.3117933480644" fill="none" stroke="#000000" stroke-width="0.07471903413867506"/>
	<path d="M 430.93375310752,703.3686480982323 L 440.4940329929479,700.4358936740974" fill="none" stroke="#000000" stroke-width="0.07471903413867506"/>
	<path d="M 430.97203993088,703.4934403246082 L 440.53210513481935,700.5599861667206" fill="none" stroke="#000000" stroke-width="0.07471903413867506"/>
	<path d="M 431.01033412416,703.6182240484562 L 440.5701852260818,700.6840722273869" fill="none" stroke="#000000" stroke-width="0.07471903413867506"/>
	<path d="M 431.04863608,703.7430006480002 L 440.60827366695787,700.8081532574156" fill="none" stroke="#000000" stroke-width="0.07471903413867506"/>
	<path d="M 431.08694619104,703.8677715014642 L 440.64637085763474,700.9322306579909" fill="none" stroke="#000000" stroke-width="0.07471903413867506"/>
	<path d="M 431.12526484992,703.9925379870722 L 440.68447719826275,701.056305830159" fill="none" stroke="#000000" stroke-width="0.07471903413867506"/>
	<path d="M 431.16359244928,704.1173014830482 L 440.72259308895497,701.1803801748254" fill="none" stroke="#000000" stroke-width="0.07471903413867506"/>
	<path d="M 431.20192938176,704.2420633676162 L 440.7607189297861,701.3044550927526" fill="none" stroke="#000000" stroke-width="0.07471903413867506"/>
	<path d="M 431.24027603999997,704.3668250190002 L 440.7988551207916,701.4285319845578" fill="none" stroke="#000000" stroke-width="0.07471903413867506"/>
	<path d="M 431.27863281663997,704.4915878154242 L 440.837002061967,701.5526122507101" fill="none" stroke="#000000" stroke-width="0.07471903413867506"/>
	<path d="M 431.31700010431996,704.6163531351123 L 440.87516015326685,701.6766972915285" fill="none" stroke="#000000" stroke-width="0.07471903413867506"/>
	<path d="M 431.35537829568,704.7411223562882 L 440.91332979460395,701.8007885071789" fill="none" stroke="#000000" stroke-width="0.07471903413867506"/>
	<path d="M 431.39376778336,704.8658968571763 L 440.95151138584845,701.924887297673" fill="none" stroke="#000000" stroke-width="0.07471903413867506"/>
	<path d="M 431.43216896,704.9906780160002 L 440.98970532682733,702.0489950628638" fill="none" stroke="#000000" stroke-width="0.07471903413867506"/>
	<path d="M 431.47058221824,705.1154672109842 L 441.02791201732293,702.173113202446" fill="none" stroke="#000000" stroke-width="0.07471903413867506"/>
	<path d="M 431.50900795072,705.2402658203522 L 441.0661318570729,702.2972431159515" fill="none" stroke="#000000" stroke-width="0.07471903413867506"/>
	<path d="M 431.54744655008,705.3650752223282 L 441.1043652457687,702.4213862027483" fill="none" stroke="#000000" stroke-width="0.07471903413867506"/>
	<path d="M 431.58589840895996,705.4898967951362 L 441.1426125830553,702.5455438620379" fill="none" stroke="#000000" stroke-width="0.07471903413867506"/>
	<path d="M 431.62436392,705.6147319170002 L 441.18087426853026,702.6697174928531" fill="none" stroke="#000000" stroke-width="0.07471903413867506"/>
	<path d="M 431.66284347583996,705.7395819661442 L 441.21915070174254,702.7939084940563" fill="none" stroke="#000000" stroke-width="0.07471903413867506"/>
	<path d="M 431.70133746912,705.8644483207922 L 441.2574422821924,702.9181182643365" fill="none" stroke="#000000" stroke-width="0.07471903413867506"/>
	<path d="M 431.73984629247997,705.9893323591682 L 441.2957494093301,703.042348202208" fill="none" stroke="#000000" stroke-width="0.07471903413867506"/>
	<path d="M 431.77837033855997,706.1142354594963 L 441.33407248255537,703.1665997060081" fill="none" stroke="#000000" stroke-width="0.07471903413867506"/>
	<path d="M 431.81691,706.2391590000002 L 441.37241190121665,703.2908741738946" fill="none" stroke="#000000" stroke-width="0.07471903413867506"/>
	<path d="M 431.85546566944,706.3641043589042 L 441.41076806461024,703.4151730038446" fill="none" stroke="#000000" stroke-width="0.07471903413867506"/>
	<path d="M 431.89403773952,706.4890729144322 L 441.4491413719797,703.539497593652" fill="none" stroke="#000000" stroke-width="0.07471903413867506"/>
	<path d="M 431.93262660287996,706.6140660448083 L 441.4875322225149,703.6638493409255" fill="none" stroke="#000000" stroke-width="0.07471903413867506"/>
	<path d="M 431.97123265216,706.7390851282562 L 441.52594101535175,703.7882296430869" fill="none" stroke="#000000" stroke-width="0.07471903413867506"/>
	<path d="M 432.00985628,706.8641315430002 L 441.56436814957095,703.9126398973694" fill="none" stroke="#000000" stroke-width="0.07471903413867506"/>
	<path d="M 432.04849787904,706.9892066672642 L 441.60281402419764,704.0370815008155" fill="none" stroke="#000000" stroke-width="0.07471903413867506"/>
	<path d="M 432.08715784192,707.1143118792722 L 441.64127903820065,704.1615558502748" fill="none" stroke="#000000" stroke-width="0.07471903413867506"/>
	<path d="M 432.12583656128,707.2394485572482 L 441.6797635904918,704.2860643424033" fill="none" stroke="#000000" stroke-width="0.07471903413867506"/>
	<path d="M 432.16453442976,707.3646180794162 L 441.7182680799253,704.4106083736604" fill="none" stroke="#000000" stroke-width="0.07471903413867506"/>
	<path d="M 432.20325184,707.4898218240003 L 441.7567929052968,704.5351893403082" fill="none" stroke="#000000" stroke-width="0.07471903413867506"/>
	<path d="M 432.24198918464,707.6150611692242 L 441.7953384653432,704.6598086384093" fill="none" stroke="#000000" stroke-width="0.07471903413867506"/>
	<path d="M 432.28074685632,707.7403374933123 L 441.8339051587418,704.7844676638257" fill="none" stroke="#000000" stroke-width="0.07471903413867506"/>
	<path d="M 432.31952524767996,707.8656521744882 L 441.8724933841096,704.909167812216" fill="none" stroke="#000000" stroke-width="0.07471903413867506"/>
	<path d="M 432.35832475136,707.9910065909762 L 441.91110354000284,705.0339104790354" fill="none" stroke="#000000" stroke-width="0.07471903413867506"/>
	<path d="M 432.39714576,708.1164021210002 L 441.94973602491615,705.158697059533" fill="none" stroke="#000000" stroke-width="0.07471903413867506"/>
	<path d="M 432.43598866624,708.2418401427842 L 441.9883912372824,705.2835289487509" fill="none" stroke="#000000" stroke-width="0.07471903413867506"/>
	<path d="M 432.47485386272,708.3673220345522 L 442.02706957547167,705.4084075415227" fill="none" stroke="#000000" stroke-width="0.07471903413867506"/>
	<path d="M 432.51374174207996,708.4928491745283 L 442.06577143779094,705.5333342324718" fill="none" stroke="#000000" stroke-width="0.07471903413867506"/>
	<path d="M 432.55265269695997,708.6184229409363 L 442.1044972224836,705.6583104160101" fill="none" stroke="#000000" stroke-width="0.07471903413867506"/>
	<path d="M 432.59158712,708.7440447120002 L 442.14324732772855,705.7833374863369" fill="none" stroke="#000000" stroke-width="0.07471903413867506"/>
	<path d="M 432.63054540383996,708.8697158659443 L 442.18202215164007,705.9084168374376" fill="none" stroke="#000000" stroke-width="0.07471903413867506"/>
	<path d="M 432.66952794112,708.9954377809922 L 442.22082209226716,706.033549863082" fill="none" stroke="#000000" stroke-width="0.07471903413867506"/>
	<path d="M 432.70853512447997,709.1212118353683 L 442.25964754759286,706.1587379568238" fill="none" stroke="#000000" stroke-width="0.07471903413867506"/>
	<path d="M 432.74756734656,709.2470394072963 L 442.29849891553414,706.2839825119981" fill="none" stroke="#000000" stroke-width="0.07471903413867506"/>
	<path d="M 432.78662499999996,709.3729218750003 L 442.3373765939409,706.4092849217225" fill="none" stroke="#000000" stroke-width="0.07471903413867506"/>
	<path d="M 432.82570847744,709.4988606167043 L 442.3762809805962,706.5346465788932" fill="none" stroke="#000000" stroke-width="0.07471903413867506"/>
	<path d="M 432.86481817151997,709.6248570106322 L 442.41521247321504,706.6600688761864" fill="none" stroke="#000000" stroke-width="0.07471903413867506"/>
	<path d="M 432.90395447488,709.7509124350082 L 442.45417146944436,706.7855532060557" fill="none" stroke="#000000" stroke-width="0.07471903413867506"/>
	<path d="M 432.94311778016,709.8770282680563 L 442.49315836686264,706.9111009607319" fill="none" stroke="#000000" stroke-width="0.07471903413867506"/>
	<path d="M 432.98230848,710.0032058880003 L 442.5321735629792,707.0367135322216" fill="none" stroke="#000000" stroke-width="0.07471903413867506"/>
	<path d="M 433.02152696703996,710.1294466730643 L 442.5712174552342,707.1623923123065" fill="none" stroke="#000000" stroke-width="0.07471903413867506"/>
	<path d="M 433.06077363392,710.2557520014723 L 442.61029044099786,707.2881386925425" fill="none" stroke="#000000" stroke-width="0.07471903413867506"/>
	<path d="M 433.10004887328,710.3821232514483 L 442.64939291757014,707.413954064259" fill="none" stroke="#000000" stroke-width="0.07471903413867506"/>
	<path d="M 433.13935307776,710.5085618012163 L 442.68852528218065,707.5398398185577" fill="none" stroke="#000000" stroke-width="0.07471903413867506"/>
	<path d="M 433.17868663999997,710.6350690290003 L 442.72768793198793,707.6657973463123" fill="none" stroke="#000000" stroke-width="0.07471903413867506"/>
	<path d="M 433.21804995264,710.7616463130242 L 442.76688126407953,707.7918280381676" fill="none" stroke="#000000" stroke-width="0.07471903413867506"/>
	<path d="M 433.25744340832,710.8882950315123 L 442.8061056754712,707.9179332845388" fill="none" stroke="#000000" stroke-width="0.07471903413867506"/>
	<path d="M 433.29686739967997,711.0150165626883 L 442.8453615631069,708.0441144756107" fill="none" stroke="#000000" stroke-width="0.07471903413867506"/>
	<path d="M 433.33632231935997,711.1418122847763 L 442.8846493238586,708.1703730013376" fill="none" stroke="#000000" stroke-width="0.07471903413867506"/>
	<path d="M 433.37580856,711.2686835760003 L 442.9239693545255,708.296710251442" fill="none" stroke="#000000" stroke-width="0.07471903413867506"/>
	<path d="M 433.41532651423995,711.3956318145842 L 442.9633220518342,708.4231276154148" fill="none" stroke="#000000" stroke-width="0.07471903413867506"/>
	<path d="M 433.45487657471995,711.5226583787523 L 443.0027078124385,708.5496264825147" fill="none" stroke="#000000" stroke-width="0.07471903413867506"/>
	<path d="M 433.49445913408,711.6497646467283 L 443.04212703291853,708.6762082417667" fill="none" stroke="#000000" stroke-width="0.07471903413867506"/>
	<path d="M 433.53407458495997,711.7769519967363 L 443.0815801097813,708.8028742819639" fill="none" stroke="#000000" stroke-width="0.07471903413867506"/>
	<path d="M 433.57372332,711.9042218070003 L 443.12106743946,708.9296259916646" fill="none" stroke="#000000" stroke-width="0.07471903413867506"/>
	<path d="M 433.61340573184,712.0315754557442 L 443.16058941831375,709.0564647591939" fill="none" stroke="#000000" stroke-width="0.07471903413867506"/>
	<path d="M 433.65312221311996,712.1590143211923 L 443.20014644262784,709.1833919726424" fill="none" stroke="#000000" stroke-width="0.07471903413867506"/>
	<path d="M 433.69287315648,712.2865397815683 L 443.2397389086131,709.3104090198664" fill="none" stroke="#000000" stroke-width="0.07471903413867506"/>
	<path d="M 433.73265895455995,712.4141532150963 L 443.27936721240576,709.4375172884875" fill="none" stroke="#000000" stroke-width="0.07471903413867506"/>
	<path d="M 433.77248,712.5418560000003 L 443.3190317500678,709.5647181658923" fill="none" stroke="#000000" stroke-width="0.07471903413867506"/>
	<path d="M 433.81233668543996,712.6696495145043 L 443.35873291758605,709.6920130392327" fill="none" stroke="#000000" stroke-width="0.07471903413867506"/>
	<path d="M 433.85222940351997,712.7975351368323 L 443.39847111087266,709.8194032954256" fill="none" stroke="#000000" stroke-width="0.07471903413867506"/>
	<path d="M 433.89215854687995,712.9255142452083 L 443.43824672576466,709.9468903211525" fill="none" stroke="#000000" stroke-width="0.07471903413867506"/>
	<path d="M 433.93212450816,713.0535882178563 L 443.47806015802405,710.0744755028597" fill="none" stroke="#000000" stroke-width="0.07471903413867506"/>
	<path d="M 433.97212767999997,713.1817584330003 L 443.5179118033376,710.2021602267591" fill="none" stroke="#000000" stroke-width="0.07471903413867506"/>
	<path d="M 434.01216845503996,713.3100262688644 L 443.5578020573167,710.329945878827" fill="none" stroke="#000000" stroke-width="0.07471903413867506"/>
	<path d="M 434.05224722592,713.4383931036723 L 443.5977313154974,710.4578338448043" fill="none" stroke="#000000" stroke-width="0.07471903413867506"/>
	<path d="M 434.09236438527995,713.5668603156483 L 443.6376999733405,710.5858255101981" fill="none" stroke="#000000" stroke-width="0.07471903413867506"/>
	<path d="M 434.13252032575997,713.6954292830163 L 443.6777084262311,710.7139222602802" fill="none" stroke="#000000" stroke-width="0.07471903413867506"/>
	<path d="M 434.17271544,713.8241013840003 L 443.71775706947903,710.8421254800883" fill="none" stroke="#000000" stroke-width="0.07471903413867506"/>
	<path d="M 434.21295012063996,713.9528779968243 L 443.7578462983185,710.9704365544255" fill="none" stroke="#000000" stroke-width="0.07471903413867506"/>
	<path d="M 434.25322476032,714.0817604997123 L 443.7979765079083,711.0988568678612" fill="none" stroke="#000000" stroke-width="0.07471903413867506"/>
	<path d="M 434.29353975168,714.2107502708883 L 443.8381480933316,711.2273878047312" fill="none" stroke="#000000" stroke-width="0.07471903413867506"/>
	<path d="M 434.33389548736,714.3398486885764 L 443.87836144959624,711.3560307491381" fill="none" stroke="#000000" stroke-width="0.07471903413867506"/>
	<path d="M 434.37429235999997,714.4690571310003 L 443.9186169716346,711.4847870849513" fill="none" stroke="#000000" stroke-width="0.07471903413867506"/>
	<path d="M 434.41473076223997,714.5983769763843 L 443.95891505430365,711.6136581958081" fill="none" stroke="#000000" stroke-width="0.07471903413867506"/>
	<path d="M 434.45521108671994,714.7278096029523 L 443.99925609238505,711.7426454651136" fill="none" stroke="#000000" stroke-width="0.07471903413867506"/>
	<path d="M 434.49573372607995,714.8573563889283 L 444.03964048058526,711.8717502760413" fill="none" stroke="#000000" stroke-width="0.07471903413867506"/>
	<path d="M 434.53629907296,714.9870187125363 L 444.08006861353545,712.0009740115339" fill="none" stroke="#000000" stroke-width="0.07471903413867506"/>
	<path d="M 434.57690751999996,715.1167979520003 L 444.12054088579174,712.1303180543036" fill="none" stroke="#000000" stroke-width="0.07471903413867506"/>
	<path d="M 434.61755945984,715.2466954855444 L 444.16105769183537,712.2597837868326" fill="none" stroke="#000000" stroke-width="0.07471903413867506"/>
	<path d="M 434.65825528512,715.3767126913923 L 444.2016194260727,712.3893725913738" fill="none" stroke="#000000" stroke-width="0.07471903413867506"/>
	<path d="M 434.69899538847994,715.5068509477683 L 444.24222648283524,712.5190858499518" fill="none" stroke="#000000" stroke-width="0.07471903413867506"/>
	<path d="M 434.73978016255995,715.6371116328963 L 444.28287925638017,712.6489249443631" fill="none" stroke="#000000" stroke-width="0.07471903413867506"/>
	<path d="M 434.78060999999997,715.7674961250003 L 444.3235781408901,712.7788912561768" fill="none" stroke="#000000" stroke-width="0.07471903413867506"/>
	<path d="M 434.82148529344,715.8980058023043 L 444.3643235304734,712.908986166736" fill="none" stroke="#000000" stroke-width="0.07471903413867506"/>
	<path d="M 434.86240643552,716.0286420430323 L 444.40511581916434,713.0392110571578" fill="none" stroke="#000000" stroke-width="0.07471903413867506"/>
	<path d="M 434.90337381887997,716.1594062254084 L 444.44595540092325,713.1695673083348" fill="none" stroke="#000000" stroke-width="0.07471903413867506"/>
	<path d="M 434.94438783616,716.2902997276564 L 444.486842669637,713.3000563009349" fill="none" stroke="#000000" stroke-width="0.07471903413867506"/>
	<path d="M 434.98544888,716.4213239280003 L 444.52777801911867,713.4306794154035" fill="none" stroke="#000000" stroke-width="0.07471903413867506"/>
	<path d="M 435.02655734303994,716.5524802046643 L 444.5687618431083,713.5614380319635" fill="none" stroke="#000000" stroke-width="0.07471903413867506"/>
	<path d="M 435.06771361791994,716.6837699358723 L 444.6097945352728,713.6923335306165" fill="none" stroke="#000000" stroke-width="0.07471903413867506"/>
	<path d="M 435.10891809727997,716.8151944998483 L 444.6508764892064,713.8233672911437" fill="none" stroke="#000000" stroke-width="0.07471903413867506"/>
	<path d="M 435.15017117376,716.9467552748164 L 444.69200809843056,713.9545406931071" fill="none" stroke="#000000" stroke-width="0.07471903413867506"/>
	<path d="M 435.19147323999994,717.0784536390004 L 444.7331897563946,714.0858551158501" fill="none" stroke="#000000" stroke-width="0.07471903413867506"/>
	<path d="M 435.23282468864,717.2102909706243 L 444.774421856476,714.2173119384987" fill="none" stroke="#000000" stroke-width="0.07471903413867506"/>
	<path d="M 435.27422591231993,717.3422686479123 L 444.8157047919802,714.3489125399631" fill="none" stroke="#000000" stroke-width="0.07471903413867506"/>
	<path d="M 435.31567730368,717.4743880490884 L 444.85703895614154,714.4806582989379" fill="none" stroke="#000000" stroke-width="0.07471903413867506"/>
	<path d="M 435.35717925535994,717.6066505523763 L 444.89842474212287,714.6125505939036" fill="none" stroke="#000000" stroke-width="0.07471903413867506"/>
	<path d="M 435.39873215999995,717.7390575360004 L 444.9398625430166,714.7445908031284" fill="none" stroke="#000000" stroke-width="0.07471903413867506"/>
	<path d="M 435.44033641024,717.8716103781844 L 444.9813527518444,714.876780304668" fill="none" stroke="#000000" stroke-width="0.07471903413867506"/>
	<path d="M 435.48199239871997,718.0043104571523 L 445.0228957615578,715.009120476368" fill="none" stroke="#000000" stroke-width="0.07471903413867506"/>
	<path d="M 435.52370051808,718.1371591511283 L 445.06449196503854,715.1416126958648" fill="none" stroke="#000000" stroke-width="0.07471903413867506"/>
	<path d="M 435.56546116095996,718.2701578383363 L 445.106141755099,715.2742583405864" fill="none" stroke="#000000" stroke-width="0.07471903413867506"/>
	<path d="M 435.60727471999996,718.4033078970003 L 445.1478455244823,715.407058787754" fill="none" stroke="#000000" stroke-width="0.07471903413867506"/>
	<path d="M 435.64914158783995,718.5366107053444 L 445.1896036658628,715.5400154143838" fill="none" stroke="#000000" stroke-width="0.07471903413867506"/>
	<path d="M 435.69106215712,718.6700676415924 L 445.23141657184664,715.673129597287" fill="none" stroke="#000000" stroke-width="0.07471903413867506"/>
	<path d="M 435.73303682048,718.8036800839684 L 445.2732846349718,715.8064027130727" fill="none" stroke="#000000" stroke-width="0.07471903413867506"/>
	<path d="M 435.77506597056,718.9374494106963 L 445.3152082477087,715.9398361381477" fill="none" stroke="#000000" stroke-width="0.07471903413867506"/>
	<path d="M 435.81714999999997,719.0713770000003 L 445.3571878024606,716.0734312487197" fill="none" stroke="#000000" stroke-width="0.07471903413867506"/>
	<path d="M 435.85928930143996,719.2054642301043 L 445.39922369156403,716.2071894207967" fill="none" stroke="#000000" stroke-width="0.07471903413867506"/>
	<path d="M 435.90148426751995,719.3397124792324 L 445.44131630728896,716.3411120301901" fill="none" stroke="#000000" stroke-width="0.07471903413867506"/>
	<path d="M 435.94373529087994,719.4741231256083 L 445.48346604183956,716.4752004525146" fill="none" stroke="#000000" stroke-width="0.07471903413867506"/>
	<path d="M 435.98604276415995,719.6086975474564 L 445.52567328735444,716.6094560631914" fill="none" stroke="#000000" stroke-width="0.07471903413867506"/>
	<path d="M 436.02840707999997,719.7434371230004 L 445.56793843590714,716.7438802374481" fill="none" stroke="#000000" stroke-width="0.07471903413867506"/>
	<path d="M 436.07082863103994,719.8783432304643 L 445.6102618795065,716.8784743503211" fill="none" stroke="#000000" stroke-width="0.07471903413867506"/>
	<path d="M 436.11330780991995,720.0134172480724 L 445.65264401009716,717.0132397766571" fill="none" stroke="#000000" stroke-width="0.07471903413867506"/>
	<path d="M 436.15584500928,720.1486605540484 L 445.69508521956027,717.1481778911138" fill="none" stroke="#000000" stroke-width="0.07471903413867506"/>
	<path d="M 436.19844062175997,720.2840745266165 L 445.7375858997134,717.2832900681625" fill="none" stroke="#000000" stroke-width="0.07471903413867506"/>
	<path d="M 436.24109503999995,720.4196605440004 L 445.7801464423115,717.4185776820891" fill="none" stroke="#000000" stroke-width="0.07471903413867506"/>
	<path d="M 436.28380865663996,720.5554199844244 L 445.8227672390472,717.5540421069957" fill="none" stroke="#000000" stroke-width="0.07471903413867506"/>
	<path d="M 436.32658186431996,720.6913542261124 L 445.86544868155136,717.6896847168023" fill="none" stroke="#000000" stroke-width="0.07471903413867506"/>
	<path d="M 436.36941505567995,720.8274646472884 L 445.9081911613933,717.8255068852484" fill="none" stroke="#000000" stroke-width="0.07471903413867506"/>
	<path d="M 436.41230862335993,720.9637526261764 L 445.9509950700818,717.9615099858947" fill="none" stroke="#000000" stroke-width="0.07471903413867506"/>
	<path d="M 436.45526295999997,721.1002195410003 L 445.99386079906503,718.0976953921245" fill="none" stroke="#000000" stroke-width="0.07471903413867506"/>
	<path d="M 436.49827845823995,721.2368667699844 L 446.0367887397316,718.2340644771456" fill="none" stroke="#000000" stroke-width="0.07471903413867506"/>
	<path d="M 436.54135551071994,721.3736956913524 L 446.0797792834106,718.3706186139916" fill="none" stroke="#000000" stroke-width="0.07471903413867506"/>
	<path d="M 436.58449451007994,721.5107076833284 L 446.1228328213724,718.5073591755242" fill="none" stroke="#000000" stroke-width="0.07471903413867506"/>
	<path d="M 436.62769584895995,721.6479041241364 L 446.1659497448293,718.6442875344343" fill="none" stroke="#000000" stroke-width="0.07471903413867506"/>
	<path d="M 436.67095992,721.7852863920004 L 446.2091304449355,718.781405063244" fill="none" stroke="#000000" stroke-width="0.07471903413867506"/>
	<path d="M 436.71428711583997,721.9228558651444 L 446.2523753127882,718.9187131343082" fill="none" stroke="#000000" stroke-width="0.07471903413867506"/>
	<path d="M 436.7576778291199,722.0606139217924 L 446.29568473942805,719.0562131198163" fill="none" stroke="#000000" stroke-width="0.07471903413867506"/>
	<path d="M 436.80113245248,722.1985619401685 L 446.33905911583946,719.1939063917943" fill="none" stroke="#000000" stroke-width="0.07471903413867506"/>
	<path d="M 436.84465137855994,722.3367012984965 L 446.3824988329512,719.3317943221057" fill="none" stroke="#000000" stroke-width="0.07471903413867506"/>
	<path d="M 436.88823499999995,722.4750333750004 L 446.4260042816372,719.469878282454" fill="none" stroke="#000000" stroke-width="0.07471903413867506"/>
	<path d="M 436.93188370943994,722.6135595479044 L 446.46957585271673,719.6081596443846" fill="none" stroke="#000000" stroke-width="0.07471903413867506"/>
	<path d="M 436.9755978995199,722.7522811954324 L 446.5132139369553,719.7466397792858" fill="none" stroke="#000000" stroke-width="0.07471903413867506"/>
	<path d="M 437.01937796287996,722.8911996958084 L 446.5569189250652,719.8853200583912" fill="none" stroke="#000000" stroke-width="0.07471903413867506"/>
	<path d="M 437.06322429215993,723.0303164272564 L 446.60069120770555,720.0242018527812" fill="none" stroke="#000000" stroke-width="0.07471903413867506"/>
	<path d="M 437.10713727999996,723.1696327680004 L 446.64453117548373,720.1632865333846" fill="none" stroke="#000000" stroke-width="0.07471903413867506"/>
	<path d="M 437.15111731903994,723.3091500962644 L 446.6884392189552,720.3025754709812" fill="none" stroke="#000000" stroke-width="0.07471903413867506"/>
	<path d="M 437.19516480191993,723.4488697902724 L 446.73241572862446,720.4420700362027" fill="none" stroke="#000000" stroke-width="0.07471903413867506"/>
	<path d="M 437.23928012127993,723.5887932282484 L 446.77646109494555,720.581771599535" fill="none" stroke="#000000" stroke-width="0.07471903413867506"/>
	<path d="M 437.28346366975995,723.7289217884164 L 446.8205757083227,720.7216815313199" fill="none" stroke="#000000" stroke-width="0.07471903413867506"/>
	<path d="M 437.32771583999994,723.8692568490004 L 446.8647599591106,720.8618012017569" fill="none" stroke="#000000" stroke-width="0.07471903413867506"/>
	<path d="M 437.37203702463995,724.0097997882244 L 446.90901423761545,721.0021319809049" fill="none" stroke="#000000" stroke-width="0.07471903413867506"/>
	<path d="M 437.41642761631994,724.1505519843124 L 446.95333893409526,721.1426752386845" fill="none" stroke="#000000" stroke-width="0.07471903413867506"/>
	<path d="M 437.46088800767996,724.2915148154884 L 446.9977344387605,721.2834323448793" fill="none" stroke="#000000" stroke-width="0.07471903413867506"/>
	<path d="M 437.50541859135996,724.4326896599764 L 447.04220114177474,721.4244046691379" fill="none" stroke="#000000" stroke-width="0.07471903413867506"/>
	<path d="M 437.55001975999994,724.5740778960004 L 447.08673943325505,721.5655935809758" fill="none" stroke="#000000" stroke-width="0.07471903413867506"/>
	<path d="M 437.59469190624,724.7156809017845 L 447.1313497032731,721.7070004497776" fill="none" stroke="#000000" stroke-width="0.07471903413867506"/>
	<path d="M 437.63943542271994,724.8575000555525 L 447.1760323418549,721.848626644798" fill="none" stroke="#000000" stroke-width="0.07471903413867506"/>
	<path d="M 437.68425070207996,724.9995367355284 L 447.22078773898244,721.9904735351639" fill="none" stroke="#000000" stroke-width="0.07471903413867506"/>
	<path d="M 437.72913813695993,725.1417923199365 L 447.26561628459336,722.1325424898776" fill="none" stroke="#000000" stroke-width="0.07471903413867506"/>
	<path d="M 437.77409811999996,725.2842681870004 L 447.31051836858234,722.274834877816" fill="none" stroke="#000000" stroke-width="0.07471903413867506"/>
	<path d="M 437.81913104383995,725.4269657149445 L 447.35549438080085,722.4173520677354" fill="none" stroke="#000000" stroke-width="0.07471903413867506"/>
	<path d="M 437.86423730111994,725.5698862819925 L 447.4005447110587,722.5600954282708" fill="none" stroke="#000000" stroke-width="0.07471903413867506"/>
	<path d="M 437.90941728447996,725.7130312663685 L 447.4456697491239,722.7030663279394" fill="none" stroke="#000000" stroke-width="0.07471903413867506"/>
	<path d="M 437.95467138655994,725.8564020462965 L 447.4908698847235,722.8462661351418" fill="none" stroke="#000000" stroke-width="0.07471903413867506"/>
	<path d="M 437.99999999999994,726.0000000000005 L 447.53614550754446,722.9896962181641" fill="none" stroke="#000000" stroke-width="0.07471903413867506"/>
</svg>
