<svg width="1361" height="1367" viewBox="0 0 1361 1367" fill="none" xmlns="http://www.w3.org/2000/svg">
<g id="starmap1">
<g id="Group 2">
<rect id="Rectangle 1" x="449.839" y="285.33" width="29.3089" height="25.8608" stroke="black" stroke-width="1.72405"/>
<rect id="Rectangle 2" x="492.94" y="271.538" width="22.4127" height="18.9646" stroke="black" stroke-width="1.72405"/>
<rect id="Rectangle 3" x="468.804" y="324.984" width="27.5848" height="25.8608" stroke="black" stroke-width="1.72405"/>
<rect id="Rectangle 4" x="518.801" y="311.191" width="20.6886" height="25.8608" stroke="black" stroke-width="1.72405"/>
<rect id="Rectangle 5" x="553.282" y="293.951" width="20.6886" height="27.5848" stroke="black" stroke-width="1.72405"/>
<rect id="Rectangle 6" x="536.042" y="256.022" width="18.9646" height="24.1367" stroke="black" stroke-width="1.72405"/>
</g>
<g id="Group 3">
<rect id="Rectangle 7" x="515.353" y="392.222" width="18.9646" height="24.1367" stroke="black" stroke-width="1.72405"/>
<rect id="Rectangle 8" x="546.386" y="364.637" width="22.4127" height="22.4127" stroke="black" stroke-width="1.72405"/>
<rect id="Rectangle 9" x="565.35" y="393.946" width="20.6886" height="25.8608" stroke="black" stroke-width="1.72405"/>
<rect id="Rectangle 10" x="563.626" y="435.323" width="22.4127" height="22.4127" stroke="black" stroke-width="1.72405"/>
<rect id="Rectangle 11" x="503.285" y="423.254" width="20.6886" height="27.5848" stroke="black" stroke-width="1.72405"/>
</g>
<g id="Group 1">
<rect id="Rectangle 13" x="420.53" y="450.839" width="25.8608" height="20.6886" stroke="black" stroke-width="1.72405"/>
<rect id="Rectangle 12" x="484.32" y="356.016" width="36.2051" height="25.8608" stroke="black" stroke-width="1.72405"/>
<rect id="Rectangle 14" x="394.67" y="502.561" width="34.481" height="29.3089" stroke="black" stroke-width="1.72405"/>
<rect id="Rectangle 15" x="394.67" y="562.903" width="29.3089" height="31.0329" stroke="black" stroke-width="1.72405"/>
<rect id="Rectangle 16" x="399.842" y="628.416" width="25.8608" height="27.5848" stroke="black" stroke-width="1.72405"/>
<rect id="Rectangle 17" x="434.323" y="721.515" width="24.1367" height="25.8608" stroke="black" stroke-width="1.72405"/>
<rect id="Rectangle 18" x="467.08" y="807.718" width="20.6886" height="24.1367" stroke="black" stroke-width="1.72405"/>
</g>
<rect id="Rectangle 19" x="0.5" y="0.5" width="1360" height="1366" stroke="black"/>
</g>
</svg>
